<?xml version="1.0" standalone="no"?>
<!DOCTYPE svg PUBLIC "-//W3C//DTD SVG 20010904//EN"
 "http://www.w3.org/TR/2001/REC-SVG-20010904/DTD/svg10.dtd">
<svg version="1.0" xmlns="http://www.w3.org/2000/svg"
 width="300.000000pt" height="300.000000pt" viewBox="0 0 300.000000 300.000000"
 preserveAspectRatio="xMidYMid meet">
<metadata>
Created by potrace 1.14, written by Peter Selinger 2001-2017
</metadata>
<g transform="translate(0.000000,300.000000) scale(0.100000,-0.100000)"
fill="#000000" stroke="none">
<path d="M1315 2994 c-348 -51 -635 -193 -875 -434 -214 -213 -345 -453 -412
-751 -20 -90 -23 -131 -23 -309 0 -178 3 -219 23 -309 67 -298 198 -538 412
-751 213 -214 453 -345 751 -412 90 -20 131 -23 309 -23 178 0 219 3 309 23
298 67 538 198 751 412 214 213 345 453 412 751 20 90 23 131 23 309 0 178 -3
219 -23 309 -67 298 -198 538 -412 751 -209 210 -439 337 -730 407 -89 21
-135 25 -295 28 -104 2 -203 1 -220 -1z m475 -345 c111 -29 319 -136 418 -215
484 -388 582 -1083 225 -1591 l-44 -63 -175 0 c-95 0 -174 3 -174 6 0 4 44 53
98 109 85 87 106 117 150 206 47 95 92 228 92 271 0 17 -17 18 -245 18 l-245
0 0 -306 0 -307 -92 7 c-50 3 -106 6 -125 6 l-33 0 0 263 c0 144 -3 279 -6
300 l-7 37 -78 0 -79 0 -1 -472 -1 -473 -190 385 c-105 212 -260 531 -345 710
-149 314 -218 450 -229 450 -10 0 -96 -196 -112 -255 -25 -92 -22 -335 6 -440
45 -167 157 -347 288 -462 l59 -53 -162 0 c-89 0 -173 4 -186 9 -61 23 -199
277 -243 446 -35 133 -45 375 -20 507 33 173 94 320 194 463 58 82 199 235
218 235 6 0 111 -204 235 -452 l224 -453 5 445 5 445 128 3 127 3 0 -401 0
-400 85 0 85 0 0 524 0 525 38 -6 c20 -2 71 -14 112 -24z"/>
<path d="M1890 1980 l0 -350 245 0 245 0 0 28 c0 51 -38 178 -75 253 -54 107
-111 183 -208 276 -73 70 -174 143 -199 143 -5 0 -8 -157 -8 -350z"/>
</g>
</svg>
