<?xml version="1.0" encoding="UTF-8"?>
<!DOCTYPE svg PUBLIC "-//W3C//DTD SVG 1.1//EN" "http://www.w3.org/Graphics/SVG/1.1/DTD/svg11.dtd">
<!-- Creator: CorelDRAW X8 -->
<svg xmlns="http://www.w3.org/2000/svg" xml:space="preserve" width="64mm" height="15mm" version="1.1" style="shape-rendering:geometricPrecision; text-rendering:geometricPrecision; image-rendering:optimizeQuality; fill-rule:evenodd; clip-rule:evenodd"
viewBox="0 0 6400 1500"
 xmlns:xlink="http://www.w3.org/1999/xlink">
 <defs>
  <style type="text/css">
   <![CDATA[
    .fil0 {fill:white}
    .fil1 {fill:white;fill-rule:nonzero}
   ]]>
  </style>
 </defs>
 <g id="Слой_x0020_1">
  <metadata id="CorelCorpID_0Corel-Layer"/>
  <path class="fil0" d="M697 308l0 396 -64 -1 1 -316 -106 0c-3,100 0,247 0,355 -11,-7 -154,-317 -181,-361 -37,15 -106,113 -124,148 -62,121 -69,257 -19,387 17,44 50,99 76,126l144 1c-6,-9 -22,-19 -29,-26 -76,-73 -120,-158 -119,-274 0,-37 4,-70 14,-103l37 -79c39,69 113,233 151,309l134 273c3,7 6,13 9,20 2,3 3,5 5,9l7 10c1,-120 -3,-267 1,-380l61 -1 1 240 105 2 0 -242 191 0c-10,69 -45,148 -94,194l-48 45c-1,1 -2,2 -2,2l146 1c19,-15 51,-70 63,-95 94,-203 34,-431 -136,-567 -43,-34 -151,-93 -225,-92l1 19zm-61 -155c165,0 314,67 422,175 108,108 175,257 175,422 0,165 -67,314 -175,422 -108,108 -257,175 -422,175 -165,0 -314,-67 -422,-175 -108,-108 -175,-257 -175,-422 0,-165 67,-314 175,-422 108,-108 257,-175 422,-175zm410 187c-105,-105 -250,-170 -410,-170 -160,0 -305,65 -410,170 -105,105 -170,250 -170,410 0,160 65,305 170,410 105,105 250,170 410,170 160,0 305,-65 410,-170 105,-105 170,-250 170,-410 0,-160 -65,-305 -170,-410zm-410 -128c149,0 283,60 380,158 98,97 158,232 158,380 0,148 -60,283 -158,380 -97,98 -231,158 -380,158 -148,0 -283,-60 -380,-158 -97,-97 -158,-232 -158,-380 0,-148 61,-283 158,-380 97,-98 232,-158 380,-158zm369 169c-95,-94 -225,-152 -369,-152 -144,0 -274,58 -368,152 -95,95 -153,225 -153,369 0,144 58,274 153,369 94,94 224,152 368,152 144,0 274,-58 369,-152 94,-95 152,-225 152,-369 0,-144 -58,-274 -152,-369zm-204 323l192 0c-6,-67 -34,-124 -65,-167 -26,-35 -85,-95 -127,-107l0 274z"/>
  <polygon class="fil1" points="1368,712 6279,712 6279,796 1368,796 "/>
  <path class="fil1" d="M1674 571l-62 0 -166 -254c-4,-7 -7,-13 -10,-20l-1 0c1,7 2,23 2,47l0 227 -56 0 0 -346 67 0 160 248c6,11 11,18 13,21l1 0c-2,-9 -3,-24 -3,-46l0 -223 55 0 0 346zm269 0l-54 0 0 -39 -1 0c-17,30 -42,45 -75,45 -24,0 -43,-7 -57,-20 -14,-13 -21,-31 -21,-52 0,-47 27,-74 81,-82l73 -10c0,-35 -16,-53 -50,-53 -29,0 -56,10 -79,30l0 -49c26,-15 56,-23 90,-23 62,0 93,31 93,92l0 161zm-54 -121l-52 7c-16,2 -28,6 -36,12 -8,5 -12,15 -12,30 0,10 4,19 11,25 8,7 18,10 30,10 17,0 31,-6 42,-18 12,-12 17,-27 17,-45l0 -21zm266 -73c-7,-5 -17,-8 -29,-8 -17,0 -31,8 -42,23 -11,15 -17,35 -17,61l0 118 -56 0 0 -247 56 0 0 51 1 0c6,-17 14,-31 26,-41 11,-9 24,-14 38,-14 10,0 17,1 23,4l0 53zm212 183c-20,11 -43,17 -70,17 -37,0 -67,-12 -89,-35 -23,-22 -34,-52 -34,-89 0,-40 12,-73 36,-98 25,-24 57,-37 97,-37 23,0 43,4 60,12l0 52c-17,-13 -36,-19 -55,-19 -24,0 -43,8 -58,24 -15,16 -23,37 -23,63 0,25 7,45 22,60 14,15 33,22 57,22 20,0 39,-7 57,-21l0 49zm165 17c-38,0 -69,-12 -92,-35 -22,-23 -34,-54 -34,-92 0,-41 12,-73 36,-97 24,-23 55,-35 96,-35 38,0 68,12 90,34 21,23 32,54 32,94 0,40 -11,71 -35,95 -23,24 -54,36 -93,36zm2 -214c-22,0 -39,7 -52,23 -12,15 -19,36 -19,63 0,26 7,46 20,61 13,15 30,22 51,22 22,0 39,-7 51,-22 12,-14 18,-35 18,-62 0,-27 -6,-48 -18,-63 -12,-15 -29,-22 -51,-22zm313 205c-11,6 -25,8 -43,8 -48,0 -72,-22 -72,-69l0 -139 -41 0 0 -44 41 0 0 -57 56 -16 0 73 59 0 0 44 -59 0 0 123c0,15 3,25 8,32 6,6 14,9 27,9 9,0 17,-3 24,-8l0 44zm77 -296c-9,0 -17,-3 -24,-9 -6,-6 -9,-13 -9,-22 0,-10 3,-17 9,-23 7,-6 15,-9 24,-9 9,0 17,3 24,9 6,6 10,13 10,23 0,8 -4,16 -10,22 -7,6 -15,9 -24,9zm28 299l-56 0 0 -247 56 0 0 247zm249 -11c-19,11 -43,17 -70,17 -37,0 -66,-12 -89,-35 -22,-22 -33,-52 -33,-89 0,-40 12,-73 36,-98 24,-24 56,-37 97,-37 23,0 42,4 60,12l0 52c-18,-13 -36,-19 -55,-19 -24,0 -43,8 -59,24 -15,16 -22,37 -22,63 0,25 7,45 21,60 14,15 33,22 57,22 21,0 39,-7 57,-21l0 49zm40 3l0 -52c21,16 44,24 70,24 33,0 50,-10 50,-30 0,-5 -1,-10 -4,-14 -3,-4 -7,-7 -12,-11 -5,-3 -11,-5 -17,-8 -7,-2 -14,-5 -23,-8 -10,-4 -19,-8 -27,-13 -8,-4 -15,-9 -20,-15 -6,-6 -10,-12 -12,-19 -3,-8 -4,-16 -4,-26 0,-12 2,-22 8,-31 6,-9 13,-17 23,-23 9,-6 20,-11 32,-14 12,-3 24,-5 37,-5 23,0 44,4 62,11l0 49c-18,-12 -38,-18 -60,-18 -7,0 -14,0 -19,2 -6,1 -11,3 -15,6 -4,2 -7,6 -9,9 -3,4 -4,8 -4,12 0,5 1,10 4,14 2,3 5,7 10,9 4,3 9,6 16,8 6,2 13,5 21,8 11,4 20,8 28,13 9,5 16,10 22,15 6,6 11,13 14,20 3,8 5,16 5,27 0,12 -3,23 -9,32 -6,10 -14,18 -23,24 -10,6 -21,10 -34,13 -12,3 -26,5 -40,5 -27,0 -50,-5 -70,-14zm655 8l-63 0 -31 -88 -136 0 -30 88 -63 0 130 -346 64 0 129 346zm-109 -135l-48 -138c-2,-4 -3,-12 -5,-21l-1 0c-1,9 -3,16 -5,21l-47 138 106 0zm370 135l-56 0 0 -139c0,-46 -16,-69 -49,-69 -17,0 -31,6 -42,19 -11,13 -17,29 -17,48l0 141 -56 0 0 -247 56 0 0 41 1 0c19,-31 45,-47 80,-47 27,0 48,9 62,26 14,18 21,43 21,76l0 151zm178 6c-38,0 -69,-12 -92,-35 -22,-23 -34,-54 -34,-92 0,-41 12,-73 36,-97 24,-23 55,-35 96,-35 38,0 68,12 90,34 21,23 32,54 32,94 0,40 -11,71 -35,95 -23,24 -54,36 -93,36zm2 -214c-22,0 -39,7 -52,23 -12,15 -19,36 -19,63 0,26 7,46 20,61 13,15 30,22 51,22 22,0 39,-7 51,-22 12,-14 18,-35 18,-62 0,-27 -6,-48 -18,-63 -12,-15 -29,-22 -51,-22zm403 208l-56 0 0 -139c0,-46 -16,-69 -49,-69 -17,0 -31,6 -42,19 -11,13 -17,29 -17,48l0 141 -56 0 0 -247 56 0 0 41 1 0c19,-31 45,-47 80,-47 27,0 48,9 62,26 14,18 21,43 21,76l0 151zm282 -247l-111 286c-23,52 -56,77 -98,77 -11,0 -21,-1 -29,-3l0 -46c9,2 17,4 24,4 21,0 37,-10 47,-31l16 -41 -98 -246 62 0 59 179c1,3 2,9 4,18l2 0c1,-3 2,-9 4,-17l62 -180 56 0zm407 247l-56 0 0 -135c0,-25 -4,-44 -11,-56 -8,-11 -20,-17 -37,-17 -15,0 -27,7 -38,22 -10,14 -15,32 -15,52l0 134 -56 0 0 -139c0,-46 -16,-69 -49,-69 -15,0 -27,7 -37,21 -10,13 -15,31 -15,53l0 134 -56 0 0 -247 56 0 0 39 1 0c18,-30 44,-45 78,-45 17,0 32,5 45,14 13,10 21,22 26,37 18,-34 46,-51 82,-51 54,0 82,34 82,101l0 152zm177 6c-38,0 -68,-12 -91,-35 -23,-23 -34,-54 -34,-92 0,-41 12,-73 35,-97 24,-23 56,-35 96,-35 39,0 69,12 90,34 22,23 33,54 33,94 0,40 -12,71 -35,95 -23,24 -55,36 -94,36zm3 -214c-22,0 -39,7 -52,23 -13,15 -19,36 -19,63 0,26 6,46 19,61 13,15 30,22 52,22 22,0 39,-7 51,-22 11,-14 17,-35 17,-62 0,-27 -6,-48 -17,-63 -12,-15 -29,-22 -51,-22zm398 208l-56 0 0 -39 -1 0c-16,30 -41,45 -76,45 -58,0 -87,-35 -87,-105l0 -148 56 0 0 142c0,44 17,66 51,66 17,0 30,-6 41,-18 11,-12 16,-28 16,-48l0 -142 56 0 0 247zm57 -8l0 -52c21,16 44,24 70,24 33,0 50,-10 50,-30 0,-5 -1,-10 -4,-14 -3,-4 -7,-7 -12,-11 -5,-3 -10,-5 -17,-8 -7,-2 -14,-5 -22,-8 -11,-4 -20,-8 -28,-13 -8,-4 -15,-9 -20,-15 -5,-6 -9,-12 -12,-19 -3,-8 -4,-16 -4,-26 0,-12 2,-22 8,-31 6,-9 13,-17 23,-23 9,-6 20,-11 32,-14 12,-3 25,-5 37,-5 23,0 44,4 62,11l0 49c-18,-12 -38,-18 -60,-18 -7,0 -14,0 -19,2 -6,1 -11,3 -15,6 -4,2 -7,6 -9,9 -3,4 -4,8 -4,12 0,5 1,10 4,14 2,3 5,7 10,9 4,3 9,6 16,8 6,2 13,5 21,8 11,4 20,8 29,13 8,5 15,10 21,15 6,6 11,13 14,20 3,8 5,16 5,27 0,12 -3,23 -9,32 -6,10 -13,18 -23,24 -10,6 -21,10 -34,13 -12,3 -25,5 -39,5 -27,0 -51,-5 -71,-14z"/>
  <path class="fil1" d="M1651 1176l-55 0 -28 -77 -119 0 -26 77 -56 0 114 -303 57 0 113 303zm-96 -118l-42 -121c-2,-4 -3,-11 -4,-19l-1 0c-1,8 -3,14 -4,19l-42 121 93 0zm325 118l-49 0 0 -95 -95 0 0 95 -49 0 0 -217 49 0 0 86 95 0 0 -86 49 0 0 217zm160 5c-33,0 -60,-10 -80,-30 -20,-20 -30,-47 -30,-81 0,-36 11,-64 32,-85 20,-20 48,-31 84,-31 34,0 60,10 79,30 19,20 28,48 28,83 0,35 -10,62 -30,83 -21,21 -48,31 -83,31zm3 -187c-19,0 -35,6 -46,20 -11,13 -16,32 -16,55 0,23 5,41 17,54 11,13 26,19 45,19 19,0 34,-6 44,-19 11,-13 16,-31 16,-55 0,-24 -5,-42 -16,-55 -10,-13 -25,-19 -44,-19zm354 182l-50 0 0 -95 -94 0 0 95 -50 0 0 -217 50 0 0 86 94 0 0 -86 50 0 0 217zm261 0l-45 0 0 -159c-3,6 -7,14 -13,24l-91 135 -48 0 0 -217 45 0 0 156c1,-3 5,-10 10,-19l92 -137 50 0 0 217zm319 0l-47 0 0 -173c-3,8 -7,21 -13,38l-49 135 -43 0 -50 -135c-3,-7 -7,-20 -13,-39l0 174 -40 0 0 -217 64 0 50 134c3,10 8,24 13,41l14 -40 49 -135 65 0 0 217zm257 0l-49 0 0 -95 -94 0 0 95 -50 0 0 -217 50 0 0 86 94 0 0 -86 49 0 0 217zm329 0l-50 0 0 -217 50 0 0 217zm-265 0l0 -217 50 0 0 81 59 0c22,0 40,5 54,17 13,12 19,28 19,49 0,22 -6,39 -20,52 -14,12 -31,18 -52,18l-110 0zm50 -101l0 66 44 0c25,0 38,-11 38,-34 0,-21 -13,-32 -38,-32l-44 0zm462 6l-147 0c0,20 6,36 18,47 12,11 28,16 49,16 23,0 44,-7 64,-21l0 40c-20,12 -46,18 -79,18 -32,0 -57,-9 -75,-29 -18,-20 -27,-47 -27,-83 0,-34 10,-61 30,-83 20,-21 45,-32 74,-32 30,0 53,10 69,29 16,19 24,46 24,79l0 19zm-47 -34c0,-18 -4,-32 -12,-42 -9,-9 -20,-14 -34,-14 -14,0 -26,5 -36,15 -10,10 -16,24 -18,41l100 0zm407 129l-49 0 0 -95 -95 0 0 95 -49 0 0 -217 49 0 0 86 95 0 0 -86 49 0 0 217zm230 0l-47 0 0 -34 -1 0c-15,27 -37,39 -66,39 -21,0 -38,-5 -50,-17 -12,-11 -18,-27 -18,-46 0,-41 23,-65 71,-71l64 -10c0,-31 -15,-46 -44,-46 -26,0 -49,9 -70,27l0 -43c23,-14 49,-21 79,-21 55,0 82,27 82,81l0 141zm-47 -106l-46 6c-14,2 -24,5 -31,10 -8,6 -11,14 -11,27 0,9 3,17 10,22 6,6 15,9 26,9 15,0 27,-5 37,-16 10,-10 15,-23 15,-39l0 -19zm157 74l0 0 0 132 -50 0 0 -317 50 0 0 39 0 0c17,-29 42,-44 74,-44 28,0 49,10 65,29 15,20 23,46 23,78 0,37 -9,66 -26,87 -18,22 -42,33 -72,33 -27,0 -49,-12 -64,-37zm-1 -85l0 27c0,16 5,29 15,40 10,11 23,16 39,16 18,0 32,-7 43,-21 10,-14 15,-34 15,-59 0,-22 -5,-38 -14,-50 -10,-12 -23,-18 -40,-18 -17,0 -31,6 -42,18 -11,13 -16,28 -16,47zm410 117l-63 0 -84 -105 -1 0 0 105 -49 0 0 -217 49 0 0 100 1 0 80 -100 60 0 -90 104 97 113zm119 5c-34,0 -60,-10 -80,-30 -20,-20 -30,-47 -30,-81 0,-36 10,-64 31,-85 21,-20 49,-31 84,-31 34,0 61,10 79,30 19,20 29,48 29,83 0,35 -10,62 -31,83 -20,21 -48,31 -82,31zm2 -187c-19,0 -34,6 -45,20 -11,13 -17,32 -17,55 0,23 6,41 17,54 11,13 26,19 45,19 20,0 34,-6 45,-19 10,-13 15,-31 15,-55 0,-24 -5,-42 -15,-55 -11,-13 -25,-19 -45,-19zm416 182l-47 0 0 -173c-3,8 -7,21 -13,38l-49 135 -43 0 -50 -135c-3,-7 -7,-20 -13,-39l0 174 -40 0 0 -217 64 0 50 134c3,10 8,24 13,41l14 -40 49 -135 65 0 0 217zm231 0l-48 0 0 -34 -1 0c-15,27 -37,39 -66,39 -21,0 -38,-5 -50,-17 -12,-11 -18,-27 -18,-46 0,-41 24,-65 71,-71l64 -10c0,-31 -14,-46 -44,-46 -26,0 -49,9 -70,27l0 -43c23,-14 49,-21 79,-21 55,0 83,27 83,81l0 141zm-48 -106l-45 6c-14,2 -25,5 -32,10 -7,6 -11,14 -11,27 0,9 3,17 10,22 6,6 15,9 26,9 15,0 28,-5 37,-16 10,-10 15,-23 15,-39l0 -19zm301 106l-49 0 0 -95 -95 0 0 95 -49 0 0 -217 49 0 0 86 95 0 0 -86 49 0 0 217zm328 0l-49 0 0 -217 49 0 0 217zm-264 0l0 -217 49 0 0 81 59 0c23,0 41,5 54,17 13,12 20,28 20,49 0,22 -7,39 -21,52 -14,12 -31,18 -52,18l-109 0zm49 -101l0 66 45 0c25,0 37,-11 37,-34 0,-21 -12,-32 -37,-32l-45 0z"/>
  <path class="fil1" d="M1220 1332c10,-10 15,-22 15,-36 0,-14 -5,-26 -15,-36 -10,-10 -22,-15 -36,-15 -14,0 -26,5 -36,15 -10,10 -15,22 -15,36 0,14 5,26 15,36 10,10 22,15 36,15 14,0 26,-5 36,-15zm-67 -67c9,-9 19,-13 31,-13 12,0 22,4 31,13 8,9 12,19 12,31 0,12 -4,22 -12,31 -9,8 -19,13 -31,13 -12,0 -22,-5 -31,-13 -8,-9 -12,-19 -12,-31 0,-12 4,-22 12,-31zm30 3l-19 0 0 55 9 0 0 -21 8 0c5,0 9,0 11,1 3,2 5,7 5,13l0 4 0 2c0,0 0,1 1,1l0 0 9 0 -1 0c0,-1 0,-2 0,-3 0,-2 0,-3 0,-4l0 -4c0,-3 -1,-6 -3,-9 -2,-3 -5,-5 -10,-5 4,-1 6,-2 8,-3 4,-2 6,-6 6,-11 0,-7 -3,-12 -9,-14 -3,-1 -8,-2 -15,-2zm11 9c2,1 3,4 3,8 0,4 -2,7 -6,9 -2,0 -5,1 -9,1l-9 0 0 -20 9 0c5,0 9,0 12,2z"/>
  <path class="fil1" d="M6346 641c9,-10 15,-22 15,-36 0,-14 -6,-26 -15,-36 -10,-10 -22,-15 -36,-15 -14,0 -26,5 -36,15 -10,10 -15,22 -15,36 0,14 5,26 15,36 10,10 22,15 36,15 14,0 26,-5 36,-15zm-67 -67c9,-8 19,-13 31,-13 12,0 22,5 31,13 8,9 12,19 12,31 0,12 -4,22 -12,31 -9,8 -19,13 -31,13 -12,0 -23,-5 -31,-13 -8,-9 -13,-19 -13,-31 0,-12 5,-22 13,-31zm30 3l-20 0 0 56 10 0 0 -22 8 0c5,0 9,0 11,1 3,2 5,7 5,13l0 5 0 1c0,1 0,1 0,1l1 1 9 0 -1 -1c0,-1 0,-2 0,-3 0,-2 0,-3 0,-4l0 -4c0,-3 -1,-6 -3,-9 -2,-3 -6,-5 -10,-5 4,-1 6,-2 8,-3 4,-2 6,-6 6,-11 0,-7 -3,-12 -9,-14 -3,-1 -8,-2 -15,-2zm10 9c3,1 4,4 4,8 0,4 -2,7 -6,9 -2,0 -5,1 -9,1l-9 0 0 -20 9 0c5,0 9,0 11,2z"/>
 </g>
</svg>
