<?xml version="1.0" encoding="UTF-8"?>
<!DOCTYPE svg PUBLIC "-//W3C//DTD SVG 1.1//EN" "http://www.w3.org/Graphics/SVG/1.1/DTD/svg11.dtd">
<!-- Creator: CorelDRAW 2021.5 -->
<svg xmlns="http://www.w3.org/2000/svg" xml:space="preserve" width="369px" height="369px" version="1.1" style="shape-rendering:geometricPrecision; text-rendering:geometricPrecision; image-rendering:optimizeQuality; fill-rule:evenodd; clip-rule:evenodd"
viewBox="0 0 369 369"
 xmlns:xlink="http://www.w3.org/1999/xlink"
 xmlns:xodm="http://www.corel.com/coreldraw/odm/2003">
 <defs>
  <style type="text/css">
   <![CDATA[
    .fil2 {fill:none;fill-rule:nonzero}
    .fil0 {fill:white}
    .fil1 {fill:#495C9C;fill-rule:nonzero}
   ]]>
  </style>
 </defs>
 <g id="Слой_x0020_1">
  <metadata id="CorelCorpID_0Corel-Layer"/>
  <circle class="fil0" cx="180" cy="188" r="177"/>
  <path class="fil1" d="M349 187c0,-46 -19,-88 -49,-119 -30,-30 -72,-49 -119,-49 -46,0 -88,19 -119,49 -30,30 -49,72 -49,119 0,46 19,88 49,119 30,30 72,49 119,49 46,0 88,-19 119,-49 30,-30 49,-72 49,-119zm-37 -130c33,33 54,80 54,130 0,51 -21,97 -54,131 -33,33 -80,54 -130,54 -51,0 -97,-21 -131,-54 -33,-33 -54,-80 -54,-131 0,-51 21,-97 54,-130 33,-33 80,-54 131,-54 51,0 97,21 130,54z"/>
  <path class="fil2" d="M218 123c0,25 0,49 0,49l0 0c0,-2 0,-25 0,-49z"/>
 </g>
</svg>
