<?xml version="1.0" encoding="UTF-8"?>
<!DOCTYPE svg PUBLIC "-//W3C//DTD SVG 1.1//EN" "http://www.w3.org/Graphics/SVG/1.1/DTD/svg11.dtd">
<!-- Creator: CorelDRAW 2021.5 -->
<svg xmlns="http://www.w3.org/2000/svg" xml:space="preserve" width="342px" height="332px" version="1.1" style="shape-rendering:geometricPrecision; text-rendering:geometricPrecision; image-rendering:optimizeQuality; fill-rule:evenodd; clip-rule:evenodd"
viewBox="0 0 342 333"
 xmlns:xlink="http://www.w3.org/1999/xlink"
 xmlns:xodm="http://www.corel.com/coreldraw/odm/2003">
 <defs>
  <style type="text/css">
   <![CDATA[
    .fil0 {fill:white;fill-rule:nonzero}
   ]]>
  </style>
 </defs>
 <g id="Слой_x0020_1">
  <metadata id="CorelCorpID_0Corel-Layer"/>
  <g id="_105553212990912">
   <path class="fil0" d="M328 302c0,0 0,-1 0,-1 0,0 0,0 -1,-1 0,0 -1,0 -1,0 0,0 -1,0 -1,0l-1 0 0 4 1 0c1,0 1,0 2,0 0,0 1,0 1,0 0,0 0,0 1,-1 0,0 0,-1 0,-1zm7 11l-5 0 -5 -6 -2 0 0 6 -4 0 0 -16 6 0c1,0 2,0 3,0 1,0 1,0 2,1 1,0 1,1 2,1 0,1 1,1 1,2 0,1 0,2 -1,3 -1,1 -1,1 -2,2l6 7zm4 -7c0,-3 -1,-6 -4,-9 -2,-2 -5,-4 -9,-4 -3,0 -6,1 -9,4 -2,2 -4,5 -4,9 0,3 1,6 4,9 2,2 5,4 9,4 3,0 6,-1 9,-4 2,-2 4,-5 4,-9zm4 0c0,4 -2,8 -5,11 -3,3 -7,5 -11,5 -4,0 -8,-2 -11,-5 -3,-3 -5,-7 -5,-11 0,-4 2,-8 5,-11 3,-3 7,-5 11,-5 4,0 8,2 11,5 3,3 5,7 5,11z"/>
   <path class="fil0" d="M6 167c0,88 72,160 162,160 89,0 162,-72 162,-160 0,-88 -72,-160 -162,-160 -89,0 -162,72 -162,160zm-7 0c0,-92 75,-166 168,-166 93,0 168,75 168,166 0,92 -75,166 -168,166 -93,0 -168,-74 -168,-166z"/>
   <path class="fil0" d="M21 167c0,80 66,145 147,145 81,0 147,-65 147,-145 0,-80 -66,-145 -147,-145 -81,0 -147,65 -147,145zm-7 0c0,-84 69,-152 154,-152 85,0 153,68 153,152 0,84 -69,152 -153,152 -85,0 -154,-68 -154,-152z"/>
   <path class="fil0" d="M215 155l55 0c-4,-34 -25,-62 -55,-77l0 77zm-129 -91l51 103 0 -101 30 0 0 89 18 0 0 -117c65,8 114,63 114,129 0,31 -11,60 -30,82l-43 0c22,-16 38,-40 42,-68l-54 0 0 68 -30 0 0 -68 -18 0 0 108 -87 -176c-12,21 -14,36 -14,53 0,34 17,64 43,82l-42 0c-19,-22 -31,-51 -31,-82 0,-40 17,-77 50,-103z"/>
  </g>
 </g>
</svg>
