<?xml version="1.0" encoding="UTF-8"?>
<!DOCTYPE svg PUBLIC "-//W3C//DTD SVG 1.1//EN" "http://www.w3.org/Graphics/SVG/1.1/DTD/svg11.dtd">
<!-- Creator: CorelDRAW 2021.5 -->
<svg xmlns="http://www.w3.org/2000/svg" xml:space="preserve" width="100mm" height="100mm" version="1.1" style="shape-rendering:geometricPrecision; text-rendering:geometricPrecision; image-rendering:optimizeQuality; fill-rule:evenodd; clip-rule:evenodd"
viewBox="0 0 10000 10000"
 xmlns:xlink="http://www.w3.org/1999/xlink"
 xmlns:xodm="http://www.corel.com/coreldraw/odm/2003">
 <defs>
  <style type="text/css">
   <![CDATA[
    .fil0 {fill:#495C9C}
   ]]>
  </style>
 </defs>
 <g id="Слой_x0020_1">
  <metadata id="CorelCorpID_0Corel-Layer"/>
  <path class="fil0" d="M9990.58 2150.14c-33.12,-348.04 -197.45,-670.46 -459.26,-902.27 -247.44,-218.08 -566.74,-339.3 -896.65,-339.3 -7.5,0 -15,0.63 -21.87,0.63l-7221.95 0c-6.87,0 -13.75,0 -19.99,0 -71.86,0 -144.34,5.62 -215.57,16.25 -299.3,43.73 -575.49,188.7 -781.68,409.89 -241.82,253.06 -377.41,590.48 -377.41,941.02 0,6.87 0,14.37 0,21.24l0 5407.4c0,8.75 0,18.12 0,26.87 0,216.82 52.49,431.14 153.09,623.59 191.2,368.03 539.24,629.84 946.01,711.07 128.72,21.25 259.31,32.5 389.9,32.5 52.49,0 104.98,-1.88 156.84,-5l6970.76 0c3.74,0 7.49,0 11.24,0 757.94,0 1372.16,-614.85 1372.16,-1372.79 0,-4.99 0,-11.24 0,-16.24l0 -5303.05c0,-82.48 0,-164.33 -5.62,-251.81zm-8621.6 -333.67l7227.57 0c28.74,-3.75 58.11,-6.25 87.48,-6.25 29.37,0 58.73,2.5 87.48,6.25 -289.93,240.57 -590.48,476.13 -885.41,711.07l-2903.65 2350.67 -3794.05 -3034.24c58.74,-16.87 119.35,-26.25 179.96,-27.5l0.62 0zm7714.32 5888.53c0,5.62 0,11.25 0,16.24 0,142.47 -64.36,277.44 -174.95,366.16 -86.23,64.36 -190.58,99.35 -297.43,99.35 -6.87,0 -13.12,-0.62 -19.99,-0.62l-7243.82 0c-174.95,0 -334.91,-96.85 -415.52,-251.19 -38.74,-89.98 -58.11,-187.45 -58.11,-284.93 0,-23.74 1.25,-47.49 3.12,-70.6l0 -4795.05 3827.17 3045.48c81.86,68.74 185.58,106.85 292.43,106.85 106.85,0 210.57,-38.11 292.43,-106.85 1254.06,-1020.99 2518.74,-2035.74 3794.67,-3045.48l0 4920.64z"/>
  <path class="fil0" d="M1423.34 3877.83l2908.65 2323.8c179.96,154.96 409.27,240.56 646.71,240.56 1.25,0 2.5,0 3.75,0 4.38,0 8.75,0 13.13,0 226.81,0 446.76,-79.36 621.09,-224.32l2924.89 -2334.41 0 3750.31 -7106.97 0c0,0 0,0 0,-32.5l0 -5.62 0 -3717.82 -11.25 0z"/>
 </g>
</svg>
