<?xml version="1.0" encoding="UTF-8"?>
<!DOCTYPE svg PUBLIC "-//W3C//DTD SVG 1.1//EN" "http://www.w3.org/Graphics/SVG/1.1/DTD/svg11.dtd">
<!-- Creator: CorelDRAW 2021.5 -->
<svg xmlns="http://www.w3.org/2000/svg" xml:space="preserve" width="118px" height="118px" version="1.1" style="shape-rendering:geometricPrecision; text-rendering:geometricPrecision; image-rendering:optimizeQuality; fill-rule:evenodd; clip-rule:evenodd"
viewBox="0 0 11800000 11800000"
 xmlns:xlink="http://www.w3.org/1999/xlink"
 xmlns:xodm="http://www.corel.com/coreldraw/odm/2003">
 <defs>
  <style type="text/css">
   <![CDATA[
    .fil1 {fill:none;fill-rule:nonzero}
    .fil2 {fill:#495C9C}
    .fil0 {fill:#495C9C;fill-rule:nonzero}
   ]]>
  </style>
 </defs>
 <g id="Слой_x0020_1">
  <metadata id="CorelCorpID_0Corel-Layer"/>
  <path class="fil0" d="M11169000 5994000c0,-1481000 -600000,-2822000 -1571000,-3792000 -970000,-971000 -2311000,-1571000 -3792000,-1571000 -1482000,0 -2823000,600000 -3793000,1571000 -970000,970000 -1571000,2311000 -1571000,3792000 0,1482000 601000,2823000 1571000,3793000 970000,970000 2311000,1571000 3793000,1571000 1481000,0 2822000,-601000 3792000,-1571000 971000,-970000 1571000,-2311000 1571000,-3793000zm-1191000 -4172000c1067000,1069000 1727000,2543000 1727000,4172000 0,1630000 -660000,3104000 -1727000,4173000 -1069000,1066000 -2543000,1727000 -4172000,1727000 -1630000,0 -3104000,-661000 -4173000,-1727000 -1066000,-1069000 -1727000,-2543000 -1727000,-4173000 0,-1629000 661000,-3103000 1727000,-4172000 1069000,-1067000 2543000,-1727000 4173000,-1727000 1629000,0 3103000,660000 4172000,1727000z"/>
  <path class="fil1" d="M6962000 3932000c0,806000 0,1560000 0,1560000l0 0c0,-50000 0,-806000 0,-1560000z"/>
  <path class="fil2" d="M6366000 1682000c0,1055000 0,3873000 0,3873000l-585000 0 0 -2876000 -939000 58000 0 3462000 -1761000 -3520000c0,0 -3285000,2876000 -586000,6219000 645000,0 1290000,0 1290000,0 -1349000,-1056000 -1759000,-2992000 -880000,-4516000 294000,704000 2876000,5924000 2876000,5924000l58000 -3461000 469000 0 0 2112000 1232000 0 0 -2289000 1761000 0c-177000,881000 -704000,1703000 -1467000,2230000 1115000,0 1408000,0 1408000,0 528000,-703000 881000,-1584000 939000,-2464000 0,-1114000 -176000,-3989000 -3815000,-4752000l0 0zm2758000 3873000l-1819000 0c0,0 0,-939000 0,-1819000 0,-295000 0,-646000 0,-880000 1644000,704000 1819000,2699000 1819000,2699000l0 0 0 0z"/>
 </g>
</svg>
