<?xml version="1.0" encoding="UTF-8"?>
<!DOCTYPE svg PUBLIC "-//W3C//DTD SVG 1.1//EN" "http://www.w3.org/Graphics/SVG/1.1/DTD/svg11.dtd">
<!-- Creator: CorelDRAW 2021.5 -->
<svg xmlns="http://www.w3.org/2000/svg" xml:space="preserve" width="100mm" height="100mm" version="1.1" style="shape-rendering:geometricPrecision; text-rendering:geometricPrecision; image-rendering:optimizeQuality; fill-rule:evenodd; clip-rule:evenodd"
viewBox="0 0 10000 10000"
 xmlns:xlink="http://www.w3.org/1999/xlink"
 xmlns:xodm="http://www.corel.com/coreldraw/odm/2003">
 <defs>
  <style type="text/css">
   <![CDATA[
    .fil0 {fill:#F7931E;fill-rule:nonzero}
    .fil1 {fill:white;fill-rule:nonzero}
   ]]>
  </style>
 </defs>
 <g id="Слой_x0020_1">
  <metadata id="CorelCorpID_0Corel-Layer"/>
  <path id="Dark_Blue" class="fil0" d="M8750 10000l-7500 0c-690,0 -1250,-560 -1250,-1250l0 -7500c0,-690 560,-1250 1250,-1250l7500 0c690,0 1250,560 1250,1250l0 7500c0,690 -560,1250 -1250,1250z"/>
  <path class="fil1" d="M5026.29 1436.43c-1021.11,0 -1848.86,827.78 -1848.86,1848.86 0,1021.11 827.75,1848.93 1848.86,1848.93 1021.11,0 1848.86,-827.83 1848.86,-1848.93 -0.01,-1021.08 -827.75,-1848.86 -1848.86,-1848.86zm0 2613.18c-422.09,0 -764.28,-342.21 -764.28,-764.3 0,-422.09 342.19,-764.28 764.28,-764.28 422.09,0 764.28,342.19 764.28,764.28 0,422.09 -342.19,764.3 -764.28,764.3z"/>
  <path class="fil1" d="M5679.02 6605.36c740.17,-150.79 1183.72,-501.31 1207.19,-520.12 216.59,-173.7 251.38,-490.09 77.68,-706.7 -173.67,-216.59 -490.03,-251.38 -706.68,-77.71 -4.58,3.7 -477.65,366.61 -1256.03,367.14 -778.35,-0.53 -1261.43,-363.43 -1266,-367.14 -216.64,-173.67 -533,-138.88 -706.68,77.71 -173.7,216.61 -138.91,533 77.68,706.7 23.79,19.08 485.64,378.72 1246.56,525.97l-1060.48 1108.29c-192.72,199.87 -186.93,518.11 12.94,710.83 97.55,94.06 223.28,140.81 348.91,140.81 131.71,0 263.29,-51.46 361.92,-153.78l985.18 -1049.47 1084.69 1056.27c196.53,196.22 514.77,195.9 710.94,-0.56 196.16,-196.48 195.92,-514.77 -0.56,-710.94l-1117.26 -1107.3z"/>
 </g>
</svg>
