<?xml version="1.0" encoding="UTF-8"?>
<!DOCTYPE svg PUBLIC "-//W3C//DTD SVG 1.1//EN" "http://www.w3.org/Graphics/SVG/1.1/DTD/svg11.dtd">
<!-- Creator: CorelDRAW X7 -->
<svg xmlns="http://www.w3.org/2000/svg" xml:space="preserve" width="100%" height="100%" version="1.1" style="shape-rendering:geometricPrecision; text-rendering:geometricPrecision; image-rendering:optimizeQuality; fill-rule:evenodd; clip-rule:evenodd"
viewBox="0 0 21000 29700"
 xmlns:xlink="http://www.w3.org/1999/xlink">
 <defs>
  <style type="text/css">
   <![CDATA[
    .fil0 {fill:#303FCA}
   ]]>
  </style>
 </defs>
 <g id="Слой_x0020_1">
  <metadata id="CorelCorpID_0Corel-Layer"/>
  <g id="Lock_-_Grey" data-name="Lock - Grey">
   <path class="fil0" d="M8427 14850l0 -3290c15,-1411 1162,-2546 2573,-2546 0,0 0,0 0,0 757,11 1471,361 1943,953l1338 -979c-794,-1014 -2011,-1606 -3299,-1606 -2309,0 -4184,1869 -4191,4178l0 3290 -1164 0c-254,5 -459,210 -463,464l0 6536c4,254 209,459 464,464l10744 0c255,-5 460,-210 464,-464l0 -6545c-9,-251 -213,-451 -464,-455l-7945 0zm4349 5772l-1750 0 569 -1645c-372,-133 -621,-486 -621,-882 0,-517 419,-936 936,-936 517,0 936,419 936,936 0,396 -248,749 -621,882l551 1645z"/>
  </g>
 </g>
</svg>
