<?xml version="1.0" encoding="UTF-8"?>
<!DOCTYPE svg PUBLIC "-//W3C//DTD SVG 1.1//EN" "http://www.w3.org/Graphics/SVG/1.1/DTD/svg11.dtd">
<!-- Creator: CorelDRAW 2021.5 -->
<svg xmlns="http://www.w3.org/2000/svg" xml:space="preserve" width="100mm" height="100mm" version="1.1" style="shape-rendering:geometricPrecision; text-rendering:geometricPrecision; image-rendering:optimizeQuality; fill-rule:evenodd; clip-rule:evenodd"
viewBox="0 0 10000 10000"
 xmlns:xlink="http://www.w3.org/1999/xlink"
 xmlns:xodm="http://www.corel.com/coreldraw/odm/2003">
 <defs>
  <style type="text/css">
   <![CDATA[
    .fil0 {fill:#495C9C}
   ]]>
  </style>
 </defs>
 <g id="Слой_x0020_1">
  <metadata id="CorelCorpID_0Corel-Layer"/>
  <path class="fil0" d="M9546.39 4542.89c-36.71,79.99 -99.17,145.74 -176.97,187.38 -116.15,44.37 -237.23,78.34 -359.96,100.26 -197.79,48.21 -401.05,72.87 -604.87,72.87 -283.25,0 -565.41,-47.67 -833.33,-139.71l-138.61 -43.29c-146.29,-71.77 -282.17,-163.81 -402.7,-273.39 -52.6,-78.35 -80.54,-170.94 -80.54,-265.72 0,-20.28 1.1,-40 3.84,-60.27 -19.18,-304.63 -68.49,-609.8 -144.1,-905.66 -23.01,-103 -65.2,-201.07 -124.37,-287.64 -129.85,-76.15 -270.65,-130.94 -417.49,-163.27l-20.46 -5.05 -189.17 449.8c113.71,38.86 202.01,132.24 233.74,250.52l306.82 1107.28c27.39,118.34 111.76,215.86 225.18,259.15l1572.43 436.11c160.53,41.64 272.3,186.83 272.3,352.29 0,43.29 -7.67,86.57 -23.01,127.11l-724.91 2170.43 1568.65 0 0 875 -9271.31 0 0 -875 1582.89 0 -724.91 -2170.43c-14.79,-40.54 -23.01,-83.82 -23.01,-127.11 0,-165.46 112.32,-310.65 272.3,-352.29l1591.61 -436.66c124.92,-34.52 221.34,-133.14 254.22,-258.6l292.57 -1107.28c35.61,-134.78 145.73,-237.23 282.71,-263.53l101.85 -19.21 -184.06 -441.34c-141.75,31.47 -282.32,68.3 -421.3,110.45 -36.16,6.03 -71.77,17.53 -105.19,33.42 -28.49,38.35 -50.96,79.99 -67.39,124.37 -84.38,224.63 -144.1,458.03 -176.97,695.27 -29.04,139.16 -38.35,282.71 -57.53,421.87 -0.55,82.73 -21.91,163.27 -62.46,235.04 -70.68,72.32 -155.6,129.85 -249.29,167.65 -401.6,223.54 -853.6,340.79 -1313.28,340.79 -152.31,0 -305.72,-13.15 -455.84,-38.9 -93.14,-3.29 -181.89,-41.09 -249.28,-105.2 -52.6,-95.88 -100.82,-177.51 -139.17,-254.21 -241.07,-382.43 -369.82,-826.22 -369.82,-1278.77 0,-53.14 2.19,-106.84 5.48,-159.43 1.09,-145.19 37.26,-288.74 105.74,-416.94 60.82,-58.63 132.59,-105.74 210.94,-139.17 488.71,-290.92 1006.46,-538.57 1539.01,-738 186.82,-76.7 388.45,-129.85 580.21,-191.76 740.19,-212.58 1510.52,-321.61 2281.94,-321.61 93.69,0 189.57,2.2 282.71,5.48 1376.28,60.27 2734.49,387.36 3988.6,958.25 153.41,72.33 311.75,134.24 479.4,215.87l340.24 177.52 28.49 28.49c20.82,21.36 38.35,46.02 52.59,72.32 69.04,170.39 104.65,352.83 104.65,537.47 0,115.61 -14.25,231.76 -42.19,344.62 -68.48,350.65 -207.1,685.95 -407.62,982.36zm-4821.29 -1531.39l89.75 -16.93 62.46 0 62.46 0 243.33 45.9 177.18 -421.3c-154.4,-12.84 -310.82,-19.08 -465.99,-19.08 -112.27,0 -224.51,3.38 -336.55,10.11l167.36 401.3zm1849.01 3065.47c0,-950.44 -770.48,-1720.91 -1720.91,-1720.91 -950.43,0 -1720.91,770.47 -1720.91,1720.91 0,950.43 770.48,1720.9 1720.91,1720.9 950.43,0 1720.91,-770.47 1720.91,-1720.9z"/>
 </g>
</svg>
