<?xml version="1.0" encoding="UTF-8"?>
<!DOCTYPE svg PUBLIC "-//W3C//DTD SVG 1.1//EN" "http://www.w3.org/Graphics/SVG/1.1/DTD/svg11.dtd">
<!-- Creator: CorelDRAW 2021.5 -->
<svg xmlns="http://www.w3.org/2000/svg" xml:space="preserve" width="366px" height="366px" version="1.1" style="shape-rendering:geometricPrecision; text-rendering:geometricPrecision; image-rendering:optimizeQuality; fill-rule:evenodd; clip-rule:evenodd"
viewBox="0 0 366 366"
 xmlns:xlink="http://www.w3.org/1999/xlink"
 xmlns:xodm="http://www.corel.com/coreldraw/odm/2003">
 <defs>
  <style type="text/css">
   <![CDATA[
    .fil2 {fill:#A9C6D8;fill-rule:nonzero}
    .fil1 {fill:#C8DAEA;fill-rule:nonzero}
    .fil3 {fill:white;fill-rule:nonzero}
    .fil0 {fill:url(#id0);fill-rule:nonzero}
   ]]>
  </style>
  <linearGradient id="id0" gradientUnits="userSpaceOnUse" x1="183" y1="366" x2="183" y2="0">
   <stop offset="0" style="stop-opacity:1; stop-color:#1D93D2"/>
   <stop offset="1" style="stop-opacity:1; stop-color:#38B0E3"/>
  </linearGradient>
 </defs>
 <g id="Слой_x0020_1">
  <metadata id="CorelCorpID_0Corel-Layer"/>
  <circle class="fil0" cx="183" cy="183" r="183"/>
  <path class="fil1" d="M123.87 196.38l21.72 60.09c0,0 2.71,5.62 5.62,5.62 2.9,0 46.14,-44.97 46.14,-44.97l48.07 -92.86 -120.77 56.61 -0.78 15.51z"/>
  <g>
   <path class="fil2" d="M152.66 211.79l-4.17 44.29c0,0 -1.74,13.58 11.83,0 13.57,-13.57 26.56,-24.03 26.56,-24.03l-34.22 -20.26zm0 0l0 0 0 0z"/>
  </g>
  <path class="fil3" d="M124.27 198.52l-44.66 -14.55c0,0 -5.34,-2.17 -3.62,-7.08 0.35,-1.01 1.06,-1.87 3.2,-3.35 9.89,-6.9 183.16,-69.18 183.16,-69.18 0,0 4.89,-1.64 7.78,-0.55 1.45,0.45 2.55,1.65 2.87,3.14 0.27,1.09 0.4,2.22 0.4,3.35 0,0.2 0,0.39 -0.01,0.59 -0.01,1.15 -0.15,2.21 -0.26,3.88 -1.05,17.02 -32.63,144.1 -32.63,144.1 0,0 -1.89,7.43 -8.66,7.69 -0.13,0 -0.27,0 -0.4,0 -3.23,0 -6.33,-1.25 -8.64,-3.5 -13.28,-11.42 -59.2,-42.28 -69.34,-49.07 -0.46,-0.31 -0.77,-0.82 -0.83,-1.37 -0.15,-0.72 0.63,-1.6 0.63,-1.6 0,0 79.95,-71.07 82.08,-78.53 0.16,-0.58 -0.46,-0.86 -1.29,-0.61 -5.32,1.96 -97.37,60.09 -107.53,66.5 -0.46,0.14 -0.93,0.21 -1.41,0.21 -0.28,0 -0.57,-0.02 -0.84,-0.07l0 0z"/>
 </g>
</svg>
