<?xml version="1.0" encoding="UTF-8"?>
<!DOCTYPE svg PUBLIC "-//W3C//DTD SVG 1.1//EN" "http://www.w3.org/Graphics/SVG/1.1/DTD/svg11.dtd">
<!-- Creator: CorelDRAW 2021.5 -->
<svg xmlns="http://www.w3.org/2000/svg" xml:space="preserve" width="100mm" height="100mm" version="1.1" style="shape-rendering:geometricPrecision; text-rendering:geometricPrecision; image-rendering:optimizeQuality; fill-rule:evenodd; clip-rule:evenodd"
viewBox="0 0 10000 10000">
 <defs>
  <style type="text/css">
   <![CDATA[
    .fil0 {fill:#229ED9;fill-rule:nonzero}
    .fil2 {fill:#A9C6D8;fill-rule:nonzero}
    .fil1 {fill:#C8DAEA;fill-rule:nonzero}
    .fil3 {fill:white;fill-rule:nonzero}
   ]]>
  </style>
 </defs>
 <g>
  <g id="_105553145364448">
   <path id="Dark_Blue" class="fil0" d="M8750 10000l-7500 0c-690,0 -1250,-560 -1250,-1250l0 -7500c0,-690 560,-1250 1250,-1250l7500 0c690,0 1250,560 1250,1250l0 7500c0,690 -560,1250 -1250,1250z"/>
   <path class="fil1" d="M2923.07 5424.55l802.94 2222.42c0,0 100.4,207.94 207.89,207.94 107.5,0 1706.33,-1663.29 1706.33,-1663.29l1777.94 -3434.07 -4466.45 2093.33 -28.65 573.67z"/>
   <g>
    <path class="fil2" d="M3987.7 5994.51l-154.13 1638.14c0,0 -64.52,501.94 437.31,0 501.84,-501.95 982.17,-889 982.17,-889l-1265.35 -749.14zm0 0l0 0 0 0z"/>
   </g>
   <path class="fil3" d="M2937.56 5503.85l-1651.65 -538.14c0,0 -197.38,-80.08 -133.84,-261.69 13.09,-37.46 39.48,-69.32 118.43,-124.08 365.97,-255.09 6773.72,-2558.21 6773.72,-2558.21 0,0 180.92,-60.96 287.63,-20.42 53.74,16.65 94.36,60.96 106.3,115.91 9.83,40.5 14.79,82.24 14.79,124 0,7.22 -0.19,14.62 -0.44,21.78 -0.51,42.42 -5.65,81.73 -9.53,143.37 -39.03,629.69 -1206.92,5329.21 -1206.92,5329.21 0,0 -69.87,275 -320.23,284.42 -4.9,0.1 -9.89,0.21 -14.81,0.21 -119.24,0 -233.83,-46.47 -319.35,-129.47 -491.29,-422.59 -2189.32,-1563.74 -2564.52,-1814.72 -17.09,-11.72 -28.35,-30.24 -30.78,-50.81 -5.24,-26.46 23.51,-59.22 23.51,-59.22 0,0 2956.71,-2628.14 3035.38,-2904.03 6.1,-21.38 -16.92,-31.93 -47.83,-22.55 -196.38,72.24 -3600.67,2222.08 -3976.38,2459.34 -16.95,5.14 -34.64,7.76 -52.4,7.76 -10.38,0 -20.82,-0.92 -31.05,-2.66l-0.03 0z"/>
  </g>
 </g>
</svg>
