<?xml version="1.0" encoding="UTF-8"?>
<!DOCTYPE svg PUBLIC "-//W3C//DTD SVG 1.1//EN" "http://www.w3.org/Graphics/SVG/1.1/DTD/svg11.dtd">
<!-- Creator: CorelDRAW 2021.5 -->
<svg xmlns="http://www.w3.org/2000/svg" xml:space="preserve" width="100mm" height="100mm" version="1.1" style="shape-rendering:geometricPrecision; text-rendering:geometricPrecision; image-rendering:optimizeQuality; fill-rule:evenodd; clip-rule:evenodd"
viewBox="0 0 10000 10000">
 <defs>
  <style type="text/css">
   <![CDATA[
    .fil0 {fill:#0077FF;fill-rule:nonzero}
    .fil1 {fill:white;fill-rule:nonzero}
   ]]>
  </style>
 </defs>
 <g>
  <path id="Dark_Blue" class="fil0" d="M8750 10000l-7500 0c-690,0 -1250,-560 -1250,-1250l0 -7500c0,-690 560,-1250 1250,-1250l7500 0c690,0 1250,560 1250,1250l0 7500c0,690 -560,1250 -1250,1250z"/>
  <path class="fil1" d="M980.91 2498.29l1374.37 0c45.12,2297.35 1058.34,3270.47 1860.84,3471.14l0 -3471.14 1294.27 0 0 1981.41c792.45,-85.31 1625,-988.19 1905.96,-1981.41l1294.18 0c-215.75,1223.94 -1118.63,2126.82 -1760.65,2498.02 642.02,300.96 1670.41,1088.48 2061.61,2513l-1424.61 0c-305.99,-953.03 -1068.3,-1690.4 -2076.49,-1790.69l0 1790.69c-3124.49,0 -4468.34,-2071.84 -4529.48,-5011.02z"/>
 </g>
</svg>
