<?xml version="1.0" encoding="UTF-8"?>
<!DOCTYPE svg PUBLIC "-//W3C//DTD SVG 1.1//EN" "http://www.w3.org/Graphics/SVG/1.1/DTD/svg11.dtd">
<!-- Creator: CorelDRAW 2021.5 -->
<svg xmlns="http://www.w3.org/2000/svg" xml:space="preserve" width="100mm" height="100mm" version="1.1" style="shape-rendering:geometricPrecision; text-rendering:geometricPrecision; image-rendering:optimizeQuality; fill-rule:evenodd; clip-rule:evenodd"
viewBox="0 0 10000 10000">
 <defs>
  <style type="text/css">
   <![CDATA[
    .fil0 {fill:#25D366;fill-rule:nonzero}
   ]]>
  </style>
 </defs>
 <g>
  <path id="Dark_Blue" class="fil0" d="M8746.2 10003.8l-7500 0c-690,0 -1250,-560 -1250,-1250l0 -7500c0,-690 560,-1250 1250,-1250l7500 0c690,0 1250,560 1250,1250l0 7500c0,690 -560,1250 -1250,1250zm-1901.22 -4430.09c-14.98,-7.19 -575.53,-283.22 -675.14,-319.07 -40.67,-14.61 -84.23,-28.86 -130.56,-28.86 -75.7,0 -139.28,37.72 -188.81,111.82 -56,83.23 -225.5,281.37 -277.88,340.56 -6.84,7.82 -16.18,17.15 -21.77,17.15 -5.02,0 -91.77,-35.72 -118.03,-47.13 -601.33,-261.21 -1057.75,-889.34 -1120.34,-995.26 -8.94,-15.23 -9.31,-22.15 -9.39,-22.15 2.2,-8.06 22.42,-28.33 32.86,-38.8 30.53,-30.2 63.61,-70.02 95.61,-108.54 15.15,-18.25 30.33,-36.52 45.24,-53.75 46.43,-54.03 67.1,-95.96 91.07,-144.55l12.56 -25.24c58.52,-116.26 8.53,-214.37 -7.62,-246.05 -13.25,-26.51 -249.94,-597.75 -275.11,-657.76 -60.51,-144.82 -140.47,-212.25 -251.59,-212.25 -10.31,0 0,0 -43.24,1.82 -52.65,2.23 -339.37,39.97 -466.14,119.88 -134.43,84.76 -361.86,354.92 -361.86,830.05 0,427.62 271.37,831.37 387.88,984.93 2.89,3.87 8.21,11.73 15.93,23.02 446.19,651.62 1002.42,1134.54 1566.3,1359.79 542.85,216.85 799.91,241.91 946.06,241.91 0.02,0 0.02,0 0.02,0 61.41,0 110.57,-4.82 153.93,-9.09l27.51 -2.62c187.54,-16.63 599.66,-230.18 693.4,-490.68 73.84,-205.18 93.31,-429.37 44.18,-510.72 -33.65,-55.33 -91.65,-83.16 -165.07,-118.41zm-1776.73 -4418.25c-2082.44,0 -3776.64,1681.46 -3776.64,3748.25 0,668.48 178.9,1322.83 517.79,1895.52l-648.65 1913.4c-12.08,35.68 -3.1,75.12 23.29,101.98 19.05,19.45 44.89,29.93 71.27,29.93 10.11,0 20.3,-1.52 30.23,-4.69l1995.17 -634c545.98,291.71 1163.05,445.69 1787.57,445.69 2082.24,0.03 3776.26,-1681.26 3776.26,-3747.83 0,-2066.79 -1694.02,-3748.25 -3776.29,-3748.25zm0 6715.32c-587.64,0 -1156.8,-169.69 -1646.06,-490.73 -16.45,-10.81 -35.55,-16.35 -54.78,-16.35 -10.16,0 -20.34,1.55 -30.25,4.69l-999.46 317.7 322.65 -951.87c10.43,-30.81 5.21,-64.79 -14.01,-91.05 -372.57,-509.08 -569.52,-1110.55 -569.52,-1739.46 0,-1636.25 1341.95,-2967.46 2991.41,-2967.46 1649.26,0 2991.06,1331.21 2991.06,2967.46 0.02,1636.05 -1341.75,2967.07 -2991.04,2967.07z"/>
 </g>
</svg>
