<?xml version="1.0" encoding="UTF-8"?>
<!DOCTYPE svg PUBLIC "-//W3C//DTD SVG 1.1//EN" "http://www.w3.org/Graphics/SVG/1.1/DTD/svg11.dtd">
<!-- Creator: CorelDRAW 2021.5 -->
<svg xmlns="http://www.w3.org/2000/svg" xml:space="preserve" width="100mm" height="100mm" version="1.1" style="shape-rendering:geometricPrecision; text-rendering:geometricPrecision; image-rendering:optimizeQuality; fill-rule:evenodd; clip-rule:evenodd"
viewBox="0 0 10000 10000">
 <defs>
  <style type="text/css">
   <![CDATA[
    .fil0 {fill:black;fill-rule:nonzero}
    .fil1 {fill:white;fill-rule:nonzero}
   ]]>
  </style>
 </defs>
 <g >
  <path id="Dark_Blue" class="fil0" d="M8746.2 10003.8l-7500 0c-690,0 -1250,-560 -1250,-1250l0 -7500c0,-690 560,-1250 1250,-1250l7500 0c690,0 1250,560 1250,1250l0 7500c0,690 -560,1250 -1250,1250zm-2523.39 -2164.32l-1665.35 -2226.72 -2061.17 2226.72 -529.8 0 2354.25 -2543.27 -2339.46 -3128.11 1803.11 0 1533.69 2050.72 1898.18 -2050.72 529.81 0 -2191.27 2367.37 2471.12 3304.01 -1803.11 0z"/>
  <path id="Dark_Blue_0" class="fil1" d="M2760.25 2558.81l3658.03 4889.98 828.34 0 -3658.04 -4889.98 -828.33 0zm3462.56 5280.67l-1665.35 -2226.72 -2061.17 2226.72 -529.8 0 2354.25 -2543.27 -2339.46 -3128.11 1803.11 0 1533.69 2050.72 1898.18 -2050.72 529.81 0 -2191.27 2367.37 2471.12 3304.01 -1803.11 0z"/>
 </g>
</svg>
