<?xml version="1.0" encoding="UTF-8"?>
<!DOCTYPE svg PUBLIC "-//W3C//DTD SVG 1.1//EN" "http://www.w3.org/Graphics/SVG/1.1/DTD/svg11.dtd">
<!-- Creator: CorelDRAW 2021.5 -->
<svg xmlns="http://www.w3.org/2000/svg" xml:space="preserve" width="1181px" height="1181px" version="1.1" style="shape-rendering:geometricPrecision; text-rendering:geometricPrecision; image-rendering:optimizeQuality; fill-rule:evenodd; clip-rule:evenodd"
viewBox="0 0 1181 1181"
 xmlns:xlink="http://www.w3.org/1999/xlink"
 xmlns:xodm="http://www.corel.com/coreldraw/odm/2003">
 <defs>
  <style type="text/css">
   <![CDATA[
    .fil0 {fill:black;fill-rule:nonzero}
    .fil1 {fill:white;fill-rule:nonzero}
   ]]>
  </style>
 </defs>
 <g id="Слой_x0020_1">
  <metadata id="CorelCorpID_0Corel-Layer"/>
  <path id="Dark_Blue" class="fil0" d="M1032.93 1181.45l-885.75 0c-81.49,0 -147.63,-66.14 -147.63,-147.63l0 -885.75c0,-81.49 66.14,-147.62 147.63,-147.62l885.75 0c81.49,0 147.62,66.13 147.62,147.62l0 885.75c0,81.49 -66.13,147.63 -147.62,147.63z"/>
  <path id="Dark_Blue_0" class="fil0" d="M325.99 302.2l432.01 577.5 97.83 0 -432.02 -577.5 -97.82 0zm408.92 623.64l-196.67 -262.97 -243.43 262.97 -62.57 0 278.04 -300.36 -276.29 -369.43 212.95 0 181.13 242.19 224.17 -242.19 62.57 0 -258.79 279.59 291.84 390.2 -212.95 0z"/>
  <path id="Dark_Blue_1" class="fil1" d="M325.99 302.2l432.01 577.5 97.83 0 -432.02 -577.5 -97.82 0zm408.92 623.64l-196.67 -262.97 -243.43 262.97 -62.57 0 278.04 -300.36 -276.29 -369.43 212.95 0 181.13 242.19 224.17 -242.19 62.57 0 -258.79 279.59 291.84 390.2 -212.95 0z"/>
 </g>
</svg>
