<?xml version="1.0" encoding="UTF-8"?>
<!DOCTYPE svg PUBLIC "-//W3C//DTD SVG 1.1//EN" "http://www.w3.org/Graphics/SVG/1.1/DTD/svg11.dtd">
<!-- Creator: CorelDRAW X7 -->
<svg xmlns="http://www.w3.org/2000/svg" xml:space="preserve" width="100%" height="100%" version="1.1" style="shape-rendering:geometricPrecision; text-rendering:geometricPrecision; image-rendering:optimizeQuality; fill-rule:evenodd; clip-rule:evenodd"
viewBox="0 0 21000 29700"
 xmlns:xlink="http://www.w3.org/1999/xlink">
 <defs>
  <style type="text/css">
   <![CDATA[
    .fil1 {fill:black}
    .fil0 {fill:#303FCA}
   ]]>
  </style>
 </defs>
 <g id="Слой_x0020_1">
  <metadata id="CorelCorpID_0Corel-Layer"/>
  <polygon class="fil0" points="9582,8025 12399,8025 12398,12575 13748,12575 11002,16164 8252,12577 9596,12577 "/>
  <path class="fil1" d="M4379 16167c613,0 1225,0 1750,0 0,963 0,2013 0,2975 3121,0 6235,0 9356,0 0,-962 0,-2012 0,-2975 613,0 1225,0 1750,0 0,1313 0,2625 0,3938 -6,622 -394,866 -875,875 -3675,0 -7431,0 -11106,0 -450,-10 -877,-261 -879,-859 4,-1296 4,-2641 4,-3954z"/>
 </g>
</svg>
