<?xml version="1.0" encoding="UTF-8"?>
<!DOCTYPE svg PUBLIC "-//W3C//DTD SVG 1.1//EN" "http://www.w3.org/Graphics/SVG/1.1/DTD/svg11.dtd">
<!-- Creator: CorelDRAW X8 -->
<svg xmlns="http://www.w3.org/2000/svg" xml:space="preserve" width="210mm" height="297mm" version="1.1" style="shape-rendering:geometricPrecision; text-rendering:geometricPrecision; image-rendering:optimizeQuality; fill-rule:evenodd; clip-rule:evenodd"
viewBox="0 0 21000 29700"
 xmlns:xlink="http://www.w3.org/1999/xlink">
 <defs>
  <style type="text/css">
   <![CDATA[
    .str0 {stroke:#2B2A29;stroke-width:20}
    .fil0 {fill:#303FC9}
    .fil1 {fill:#FEFEFE;fill-rule:nonzero}
   ]]>
  </style>
 </defs>
 <g id="Слой_x0020_1">
  <metadata id="CorelCorpID_0Corel-Layer"/>
  <rect class="fil0 str0" width="21000" height="29700"/>
  <polygon class="fil1" points="8186,14824 12831,14824 12831,14904 8186,14904 "/>
  <path class="fil1" d="M8437 14686l-52 0 -26 -73 -113 0 -25 73 -52 0 108 -288 54 0 106 288zm-90 -112l-40 -115c-1,-4 -3,-10 -4,-18l-1 0c-1,8 -2,14 -4,18l-39 115 88 0zm307 112l-46 0 0 -90 -90 0 0 90 -46 0 0 -206 46 0 0 81 90 0 0 -81 46 0 0 206zm152 4c-32,0 -57,-9 -76,-28 -19,-19 -28,-45 -28,-77 0,-34 10,-61 29,-80 20,-20 47,-29 80,-29 32,0 57,9 75,28 18,19 27,45 27,78 0,33 -10,59 -29,79 -19,20 -45,29 -78,29zm2 -177c-18,0 -32,6 -43,19 -10,13 -16,30 -16,52 0,22 6,39 16,51 11,12 25,19 43,19 19,0 33,-6 42,-19 10,-12 15,-29 15,-51 0,-23 -5,-41 -15,-53 -9,-12 -23,-18 -42,-18zm335 173l-47 0 0 -90 -89 0 0 90 -47 0 0 -206 47 0 0 81 89 0 0 -81 47 0 0 206zm247 0l-42 0 0 -151c-3,6 -7,13 -12,22l-87 129 -46 0 0 -206 43 0 0 148c2,-4 5,-9 10,-18l87 -130 47 0 0 206zm302 0l-44 0 0 -165c-3,9 -7,21 -13,37l-46 128 -41 0 -47 -128c-3,-7 -7,-19 -13,-37l0 165 -38 0 0 -206 61 0 47 127c3,9 8,22 13,38l13 -37 46 -128 62 0 0 206zm243 0l-46 0 0 -90 -90 0 0 90 -46 0 0 -206 46 0 0 81 90 0 0 -81 46 0 0 206zm311 0l-47 0 0 -206 47 0 0 206zm-250 0l0 -206 46 0 0 76 56 0c22,0 39,6 51,17 13,11 19,27 19,47 0,20 -7,36 -20,48 -13,12 -29,18 -49,18l-103 0zm46 -96l0 62 43 0c23,0 35,-11 35,-32 0,-20 -12,-30 -36,-30l-42 0zm438 6l-140 0c1,19 7,33 18,44 11,10 26,15 46,15 22,0 42,-7 60,-20l0 38c-18,12 -43,17 -74,17 -30,0 -54,-9 -71,-27 -17,-19 -26,-45 -26,-79 0,-32 10,-58 29,-78 19,-20 42,-30 70,-30 28,0 50,9 65,27 16,18 23,43 23,75l0 18zm-45 -33c0,-17 -4,-30 -12,-39 -7,-9 -18,-14 -32,-14 -13,0 -24,5 -34,15 -9,9 -15,22 -17,38l95 0zm385 123l-47 0 0 -90 -89 0 0 90 -47 0 0 -206 47 0 0 81 89 0 0 -81 47 0 0 206zm218 0l-45 0 0 -32 -1 0c-14,24 -35,36 -62,36 -20,0 -36,-5 -47,-16 -12,-11 -18,-25 -18,-43 0,-39 23,-62 67,-68l61 -9c0,-29 -14,-44 -41,-44 -25,0 -47,9 -67,26l0 -41c22,-13 47,-19 75,-19 52,0 78,25 78,76l0 134zm-45 -101l-43 6c-13,2 -23,5 -30,10 -7,4 -10,13 -10,25 0,8 3,15 9,21 6,5 15,8 25,8 14,0 26,-5 35,-15 10,-10 14,-22 14,-37l0 -18zm149 70l-1 0 0 125 -46 0 0 -300 46 0 0 37 1 0c16,-28 39,-41 70,-41 26,0 46,9 61,27 14,18 22,43 22,74 0,34 -9,62 -25,82 -16,21 -39,31 -67,31 -26,0 -47,-12 -61,-35zm-1 -81l0 26c0,15 5,28 14,38 10,10 22,16 37,16 17,0 30,-7 40,-20 10,-14 15,-33 15,-57 0,-20 -5,-36 -14,-47 -9,-12 -21,-17 -37,-17 -16,0 -30,6 -40,17 -10,12 -15,27 -15,44zm388 112l-60 0 -79 -100 -1 0 0 100 -47 0 0 -206 47 0 0 95 1 0 75 -95 57 0 -85 98 92 108zm112 4c-31,0 -57,-9 -76,-28 -19,-19 -28,-45 -28,-77 0,-34 10,-61 30,-80 19,-20 46,-29 79,-29 32,0 57,9 75,28 18,19 27,45 27,78 0,33 -10,59 -29,79 -19,20 -45,29 -78,29zm2 -177c-18,0 -32,6 -43,19 -10,13 -16,30 -16,52 0,22 6,39 17,51 10,12 24,19 42,19 19,0 33,-6 43,-19 9,-12 14,-29 14,-51 0,-23 -5,-41 -14,-53 -10,-12 -24,-18 -43,-18zm394 173l-45 0 0 -165c-2,9 -6,21 -12,37l-46 128 -42 0 -47 -128c-2,-7 -6,-19 -12,-37l0 165 -38 0 0 -206 61 0 47 127c3,9 8,22 13,38l13 -37 46 -128 62 0 0 206zm218 0l-45 0 0 -32 -1 0c-14,24 -35,36 -62,36 -21,0 -36,-5 -48,-16 -11,-11 -17,-25 -17,-43 0,-39 22,-62 67,-68l61 -9c0,-29 -14,-44 -42,-44 -24,0 -46,9 -66,26l0 -41c22,-13 47,-19 75,-19 52,0 78,25 78,76l0 134zm-45 -101l-43 6c-14,2 -24,5 -30,10 -7,4 -10,13 -10,25 0,8 3,15 9,21 6,5 14,8 25,8 14,0 26,-5 35,-15 9,-10 14,-22 14,-37l0 -18zm284 101l-46 0 0 -90 -90 0 0 90 -47 0 0 -206 47 0 0 81 90 0 0 -81 46 0 0 206zm311 0l-47 0 0 -206 47 0 0 206zm-250 0l0 -206 46 0 0 76 56 0c22,0 39,6 51,17 13,11 19,27 19,47 0,20 -7,36 -20,48 -13,12 -29,18 -49,18l-103 0zm46 -96l0 62 43 0c23,0 35,-11 35,-32 0,-20 -12,-30 -36,-30l-42 0z"/>
  <path class="fil1" d="M10501 15064l0 -45 -194 0 0 263 200 0 0 -47 -147 0 0 -67 129 0 0 -45 -129 0 0 -59 141 0zm97 97l0 -74 -50 0 0 195 50 0 0 -61 21 -21 57 82 66 0 -84 -114 81 -81 -68 0 -73 74zm330 83l0 -104c0,-7 -1,-14 -3,-21 -2,-7 -6,-13 -12,-19 -6,-5 -15,-10 -25,-14 -11,-3 -25,-5 -43,-5 -12,1 -22,2 -31,5 -9,2 -17,6 -23,10 -6,4 -11,9 -15,14 -3,5 -7,11 -9,15 -2,5 -3,10 -4,14 -1,5 -1,8 -1,10l51 0 2 -11c1,-2 3,-5 5,-8 3,-2 6,-4 10,-6 4,-1 9,-2 16,-2 6,0 11,1 15,2 4,1 7,2 10,5 2,1 4,4 5,7 1,2 2,5 2,8 0,4 -1,6 -2,8 -1,2 -3,4 -5,5 -2,1 -3,2 -6,2 -2,1 -4,1 -5,2l-50 7c-8,1 -16,3 -22,7 -7,3 -12,8 -17,13 -5,5 -8,11 -11,18 -2,7 -4,14 -4,22 0,10 2,19 5,26 3,8 7,14 12,19 6,5 12,9 19,12 8,2 16,3 25,3 8,0 15,0 22,-2 6,-1 11,-4 16,-6 5,-3 9,-6 13,-9l11 -11c0,5 0,10 2,13l3 9 56 0 0 -8c-2,0 -3,-1 -4,-2 -2,-1 -3,-2 -4,-5 -1,-2 -2,-5 -3,-9 0,-4 -1,-8 -1,-14zm-50 -57l0 20c0,6 -2,12 -3,17 -1,5 -4,9 -7,12 -2,3 -5,6 -8,8 -4,2 -7,4 -10,5 -4,1 -7,2 -10,3 -3,0 -5,0 -7,0 -4,0 -7,0 -10,-1 -3,-1 -6,-3 -8,-5 -3,-2 -5,-4 -6,-7 -1,-3 -2,-7 -2,-11 0,-5 1,-9 2,-12 2,-4 4,-7 7,-9 3,-2 7,-4 11,-6 4,-1 9,-2 15,-3l14 -3c5,-1 9,-2 12,-4 3,-1 7,-2 10,-4zm80 -100l0 41 59 0 0 154 50 0 0 -154 59 0 0 -41 -168 0zm236 114l134 0c0,-18 -2,-35 -4,-49 -3,-15 -9,-28 -16,-38 -7,-10 -17,-18 -29,-24 -11,-6 -26,-9 -43,-9 -17,0 -31,3 -42,9 -12,5 -22,13 -29,22 -7,9 -13,20 -16,32 -4,12 -6,25 -6,39 0,19 3,35 8,48 4,14 11,25 20,33 8,8 18,15 30,18 11,4 23,6 36,6 11,0 20,-1 28,-3 8,-2 16,-5 22,-8 7,-4 13,-8 17,-13 5,-4 9,-9 13,-14 2,-4 5,-9 7,-14 1,-4 2,-8 2,-12l-53 0c-1,4 -2,7 -5,10 -2,2 -4,5 -7,7 -4,2 -6,4 -10,4 -3,1 -7,2 -11,2 -7,0 -13,-1 -17,-3 -6,-1 -10,-4 -13,-7 -4,-2 -7,-6 -8,-9 -2,-4 -4,-7 -5,-11 -1,-3 -2,-6 -2,-9 0,-3 -1,-6 -1,-7zm81 -34l-79 0c0,-9 1,-16 4,-22 2,-5 6,-10 10,-13 3,-4 8,-6 13,-8 4,-1 9,-2 13,-2 4,0 9,1 13,2 5,2 9,4 13,8 4,3 7,8 10,13 2,6 3,13 3,22zm134 -52l0 -28 -48 0 0 271 50 0 0 -100 1 0c3,6 7,11 11,15 4,4 9,7 14,9 5,2 9,4 15,5 4,1 10,1 14,1 15,0 27,-2 37,-7 11,-6 19,-13 26,-22 7,-10 12,-21 15,-35 4,-12 6,-27 6,-43 0,-13 -1,-24 -4,-34 -2,-10 -6,-18 -10,-25 -4,-8 -8,-14 -14,-19 -5,-5 -11,-10 -17,-13 -6,-3 -12,-5 -19,-7 -6,-1 -12,-2 -18,-2 -7,0 -13,1 -19,2 -6,2 -11,4 -16,6 -4,3 -9,7 -12,11 -4,4 -8,9 -11,15l-1 0zm44 12c8,0 15,2 21,5 5,4 10,8 13,13 4,6 6,12 8,19 1,7 2,14 2,21 0,3 0,7 -1,12 0,4 -1,9 -2,13 -2,4 -3,9 -5,13 -2,4 -5,8 -8,11 -3,3 -7,6 -12,8 -4,2 -10,3 -16,3 -6,0 -12,-1 -16,-3 -4,-2 -9,-5 -12,-8 -3,-3 -6,-7 -8,-11 -2,-4 -3,-9 -5,-13 -1,-4 -1,-9 -2,-13 -1,-5 -1,-9 -1,-12 0,-7 1,-14 3,-21 1,-7 4,-13 7,-19 4,-5 8,-9 14,-13 5,-3 12,-5 20,-5zm184 81l0 -121 -51 0 0 195 56 0 69 -117 0 0 0 117 51 0 0 -195 -53 0 -71 121 -1 0zm224 -50l0 -71 -50 0 0 195 50 0 0 -83 75 0 0 83 50 0 0 -195 -50 0 0 71 -75 0zm345 -142l-46 0c-1,1 -3,3 -5,5 -3,2 -8,3 -15,3 -21,2 -39,7 -53,14 -15,7 -28,16 -37,27 -9,12 -16,25 -20,41 -5,15 -7,32 -7,51 0,2 0,5 0,10 0,5 1,11 2,18 0,7 1,14 3,23 1,7 3,15 6,22 7,21 19,36 34,45 14,9 33,14 55,14 16,0 30,-3 42,-8 12,-5 23,-12 31,-21 9,-9 15,-19 20,-32 5,-13 7,-27 7,-43 0,-13 -2,-26 -6,-38 -4,-11 -10,-21 -17,-29 -8,-8 -17,-15 -28,-19 -11,-5 -23,-7 -36,-7 -10,0 -19,1 -27,4 -9,2 -16,5 -22,10 -7,4 -12,9 -16,14 -4,6 -7,12 -9,18 0,-9 2,-17 5,-24 2,-7 6,-13 10,-18 4,-5 9,-10 14,-13 5,-4 10,-6 16,-8 6,-2 12,-4 17,-5 6,-1 12,-2 18,-2 8,-1 16,-2 24,-4 7,-1 14,-4 20,-8 6,-4 11,-9 14,-15 4,-7 6,-15 6,-25zm-130 169c0,-8 1,-15 3,-22 2,-6 5,-12 9,-17 4,-5 9,-9 15,-12 6,-3 13,-4 22,-4 8,0 15,1 21,4 6,3 10,7 14,11 4,6 6,11 8,18 2,7 2,14 2,22 0,7 0,15 -2,22 -1,7 -4,14 -7,19 -4,6 -9,10 -15,14 -6,3 -14,5 -23,5 -9,0 -16,-2 -22,-5 -6,-4 -10,-8 -14,-14 -4,-6 -7,-12 -8,-20 -2,-7 -3,-14 -3,-21zm291 94l67 -192 -54 0 -41 144 0 0 -42 -144 -57 0 72 206c0,1 -1,4 -2,7 -1,3 -2,6 -5,9 -2,3 -5,5 -8,7 -4,2 -9,3 -14,3 -2,0 -4,0 -8,0 -3,0 -5,-1 -7,-1l0 41c4,0 7,1 11,1 2,0 5,0 9,0 8,0 16,0 21,-1 7,-1 12,-2 17,-5 4,-2 8,-5 11,-9 4,-4 7,-9 10,-15 3,-6 6,-13 9,-22 3,-8 7,-18 11,-29zm143 -164l0 -28 -48 0 0 271 50 0 0 -100 1 0c3,6 7,11 11,15 5,4 9,7 14,9 5,2 10,4 15,5 5,1 10,1 14,1 15,0 27,-2 38,-7 10,-6 18,-13 25,-22 7,-10 12,-21 16,-35 3,-12 5,-27 5,-43 0,-13 -1,-24 -4,-34 -2,-10 -5,-18 -9,-25 -5,-8 -9,-14 -15,-19 -5,-5 -11,-10 -17,-13 -6,-3 -12,-5 -18,-7 -7,-1 -13,-2 -19,-2 -7,0 -13,1 -19,2 -6,2 -11,4 -16,6 -4,3 -8,7 -12,11 -4,4 -8,9 -11,15l-1 0zm44 12c8,0 15,2 21,5 5,4 10,8 13,13 4,6 6,12 8,19 1,7 2,14 2,21 0,3 0,7 0,12 -1,4 -2,9 -3,13 -2,4 -3,9 -5,13 -2,4 -5,8 -8,11 -3,3 -7,6 -12,8 -4,2 -10,3 -16,3 -6,0 -12,-1 -16,-3 -4,-2 -8,-5 -12,-8 -3,-3 -6,-7 -7,-11 -3,-4 -4,-9 -6,-13 -1,-4 -1,-9 -2,-13 0,-5 0,-9 0,-12 0,-7 0,-14 2,-21 2,-7 4,-13 7,-19 4,-5 8,-9 14,-13 5,-3 12,-5 20,-5zm265 1l0 -41 -132 0 0 195 51 0 0 -154 81 0z"/>
 </g>
</svg>
