<?xml version="1.0" encoding="UTF-8"?>
<!DOCTYPE svg PUBLIC "-//W3C//DTD SVG 1.1//EN" "http://www.w3.org/Graphics/SVG/1.1/DTD/svg11.dtd">
<!-- Creator: CorelDRAW X8 -->
<svg xmlns="http://www.w3.org/2000/svg" xml:space="preserve" width="1358px" height="245px" version="1.1" style="shape-rendering:geometricPrecision; text-rendering:geometricPrecision; image-rendering:optimizeQuality; fill-rule:evenodd; clip-rule:evenodd"
viewBox="0 0 13580 2447"
 xmlns:xlink="http://www.w3.org/1999/xlink">
 <defs>
  <style type="text/css">
   <![CDATA[
    .fil1 {fill:#495C9C}
    .fil0 {fill:#495C9C;fill-rule:nonzero}
   ]]>
  </style>
 </defs>
 <g id="Слой_x0020_1">
  <metadata id="CorelCorpID_0Corel-Layer"/>
  <polygon class="fil0" points="3192,2227 2724,2227 2724,1525 3177,1525 3177,1609 2840,1609 2840,1818 3123,1818 3123,1898 2840,1898 2840,2142 3192,2142 "/>
  <path id="1" class="fil0" d="M3406 2227l-109 0 0 -500 109 0 0 196 81 0c49,0 80,-23 93,-70l38 -125 104 0 -39 138c-13,46 -37,77 -72,92l0 1c44,14 73,44 87,90 2,6 20,65 53,178l-108 0c-6,-19 -22,-72 -48,-158l0 1c-17,-49 -51,-73 -105,-73l-84 0 0 230z"/>
  <path id="2" class="fil0" d="M4241 1887l0 262 66 0 7 64c-30,14 -65,22 -104,22 -23,0 -40,-4 -52,-13 -11,-8 -18,-24 -19,-48l-2 -2c-50,43 -108,64 -173,64 -28,0 -52,-5 -73,-14 -21,-10 -37,-22 -47,-37 -11,-15 -18,-30 -23,-46 -5,-16 -7,-31 -7,-47 0,-47 18,-83 55,-109 37,-25 85,-40 143,-42l122 -9 0 -27c0,-38 -8,-64 -22,-79 -14,-15 -41,-22 -80,-22 -51,0 -103,8 -156,26 -5,-20 -12,-44 -20,-71 61,-28 129,-41 203,-41 59,0 104,13 135,39 31,26 47,70 47,130zm-107 108l-116 8c-58,4 -87,30 -87,77 0,52 27,78 81,78 39,0 80,-18 122,-56l0 -107z"/>
  <polygon id="3" class="fil0" points="4504,2227 4504,1807 4330,1807 4330,1726 4787,1726 4787,1807 4614,1807 4614,2227 "/>
  <path id="4" class="fil0" d="M5043 1715c143,0 214,80 214,241l0 40 -332 0c0,103 45,154 135,154 50,0 104,-11 161,-34l24 70c-59,32 -125,48 -198,48 -46,0 -85,-7 -116,-20 -32,-13 -56,-32 -73,-57 -17,-24 -29,-51 -36,-80 -7,-29 -10,-62 -10,-100 0,-21 1,-43 5,-65 3,-22 10,-45 21,-70 10,-24 24,-45 40,-64 16,-18 39,-33 67,-45 28,-12 61,-18 98,-18zm4 75c-73,0 -113,48 -120,144l227 0c0,-96 -36,-144 -107,-144z"/>
  <path id="5" class="fil0" d="M5465 1771l5 4c46,-37 96,-55 150,-55 128,0 193,84 193,252 0,80 -17,144 -50,192 -33,48 -85,72 -157,72 -59,0 -105,-11 -138,-33l0 236 -112 0 0 -713 107 0 2 45zm117 384c79,0 118,-62 118,-187 0,-61 -10,-103 -30,-127 -19,-24 -47,-36 -83,-36 -18,0 -39,4 -64,14 -24,10 -42,21 -54,32l0 273c11,8 28,15 51,22 22,6 43,9 62,9z"/>
  <path id="6" class="fil0" d="M6360 2227l-112 0 0 -356 -4 0 -63 103c-94,150 -148,234 -162,253l-105 0 0 -500 110 0 0 352 5 0c3,-5 10,-17 22,-37 11,-19 21,-34 27,-44 83,-128 141,-218 174,-271l108 0 0 500z"/>
  <polygon id="7" class="fil0" points="6912,2227 6800,2227 6800,2001 6582,2001 6582,2227 6471,2227 6471,1727 6583,1727 6583,1921 6800,1921 6800,1727 6912,1727 "/>
  <path id="8" class="fil0" d="M7235 1534c9,-5 27,-11 53,-21 26,-10 49,-20 70,-28 22,-9 38,-17 50,-22 15,30 25,53 32,68 -38,19 -75,37 -111,52 -76,30 -130,60 -161,89 -32,29 -53,76 -63,142 1,0 1,0 2,1 38,-54 92,-81 163,-81 71,0 123,22 156,67 33,45 49,105 49,180 0,33 -4,64 -13,93 -8,29 -21,56 -39,81 -18,25 -43,44 -75,59 -32,14 -70,21 -113,21 -43,0 -80,-7 -111,-21 -31,-15 -55,-34 -71,-59 -17,-25 -28,-52 -36,-80 -7,-27 -10,-58 -10,-91 0,-111 4,-186 13,-222 24,-105 95,-181 215,-228zm13 278c-42,0 -74,18 -96,55 -21,38 -32,79 -32,125 0,108 41,162 122,162 79,0 119,-56 119,-168 0,-116 -38,-174 -113,-174z"/>
  <path id="9" class="fil0" d="M7757 2155l28 -94c11,-40 29,-99 53,-176 24,-78 40,-130 48,-158l113 0 -200 592c-28,85 -80,128 -155,128 -32,0 -71,-6 -117,-18l17 -75c34,6 60,10 77,10 21,0 38,-5 51,-14 12,-10 23,-27 31,-53l26 -76 -53 0c-11,-38 -27,-91 -49,-157 -21,-67 -40,-127 -57,-182 -17,-55 -33,-107 -49,-155l110 0c14,45 46,158 97,336 6,23 14,54 23,92l6 0z"/>
  <path id="10" class="fil0" d="M8173 1771l5 4c47,-37 97,-55 151,-55 128,0 192,84 192,252 0,80 -17,144 -50,192 -33,48 -85,72 -157,72 -58,0 -104,-11 -138,-33l0 236 -111 0 0 -713 106 0 2 45zm118 384c78,0 118,-62 118,-187 0,-61 -10,-103 -30,-127 -20,-24 -48,-36 -84,-36 -18,0 -39,4 -63,14 -25,10 -43,21 -55,32l0 273c11,8 28,15 51,22 23,6 44,9 63,9z"/>
  <polygon id="11" class="fil0" points="8733,2227 8622,2227 8622,1726 8995,1726 8995,1807 8733,1807 "/>
  <path class="fil0" d="M3335 701l-120 0c-7,-21 -16,-53 -29,-94 -13,-41 -22,-68 -25,-78l-267 0 -54 172 -117 0c27,-79 67,-197 120,-354 52,-156 91,-272 116,-347l146 0 230 701zm-198 -255l-50 -166c-2,-9 -21,-72 -56,-191l-4 0 -54 187c-1,3 -9,30 -25,83 -16,52 -25,81 -27,87l216 0z"/>
  <polygon id="1" class="fil0" points="3841,701 3730,701 3730,475 3512,475 3512,701 3400,701 3400,201 3513,201 3513,396 3730,396 3730,201 3841,201 "/>
  <path id="2" class="fil0" d="M4415 452c0,35 -5,67 -13,97 -9,29 -22,56 -40,81 -17,25 -42,45 -75,59 -32,14 -70,22 -114,22 -81,0 -140,-24 -176,-71 -37,-48 -55,-110 -55,-187 0,-48 8,-91 23,-129 16,-38 42,-70 78,-96 37,-25 83,-38 138,-38 43,0 79,7 110,22 31,14 56,34 73,59 17,25 30,53 38,83 9,30 13,62 13,98zm-117 1c0,-121 -39,-181 -117,-181 -23,0 -43,5 -60,16 -17,10 -30,25 -39,43 -9,18 -15,37 -19,56 -3,20 -5,42 -5,66 0,55 8,98 26,129 17,31 50,47 97,47 78,0 117,-59 117,-176z"/>
  <polygon id="3" class="fil0" points="4955,701 4844,701 4844,475 4626,475 4626,701 4515,701 4515,201 4627,201 4627,396 4844,396 4844,201 4955,201 "/>
  <path id="4" class="fil0" d="M5513 701l-112 0 0 -355 -4 0 -63 103c-94,149 -148,233 -162,252l-105 0 0 -500 110 0 0 352 5 0c3,-5 10,-17 22,-36 12,-20 21,-34 28,-45 82,-127 140,-217 173,-271l108 0 0 500z"/>
  <path id="5" class="fil0" d="M6200 701l-106 0 0 -334 -5 0 -41 88c-8,20 -24,51 -46,94 -21,42 -38,75 -49,99l-70 0c-47,-92 -81,-157 -101,-195 -28,-54 -43,-84 -46,-91l-4 0 0 339 -108 0 0 -500 122 0 111 213c19,38 39,77 59,118l4 0c10,-24 30,-67 61,-128 28,-59 62,-126 101,-203l118 0 0 500z"/>
  <polygon id="6" class="fil0" points="6752,701 6640,701 6640,475 6423,475 6423,701 6311,701 6311,201 6424,201 6424,396 6640,396 6640,201 6752,201 "/>
  <path id="7" class="fil0" d="M7468 701l-112 0 0 -500 112 0 0 500zm-366 -254l-128 0 0 178 135 0c26,0 47,-8 63,-24 16,-16 24,-37 24,-63 0,-28 -9,-50 -26,-67 -18,-16 -40,-24 -68,-24zm-239 -246l111 0 0 174 153 0c55,0 98,16 130,47 32,31 48,69 48,116 0,49 -16,88 -47,118 -32,30 -72,45 -121,45l-274 0 0 -500z"/>
  <path id="8" class="fil0" d="M7800 189c143,0 215,81 215,241l0 40 -333 0c0,103 45,155 135,155 51,0 104,-12 161,-34l24 69c-59,33 -125,49 -198,49 -46,0 -84,-7 -116,-20 -32,-14 -56,-33 -73,-57 -16,-25 -28,-51 -35,-80 -8,-29 -11,-63 -11,-100 0,-22 2,-44 5,-66 3,-21 10,-45 21,-69 11,-25 24,-46 40,-64 17,-18 39,-33 67,-45 29,-13 61,-19 98,-19zm4 76c-73,0 -113,48 -120,144l227 0c0,-96 -35,-144 -107,-144z"/>
  <polygon id="9" class="fil0" points="8843,701 8731,701 8731,475 8514,475 8514,701 8402,701 8402,201 8515,201 8515,396 8731,396 8731,201 8843,201 "/>
  <path id="10" class="fil0" d="M9364 362l0 262 67 0 6 63c-30,15 -64,23 -103,23 -24,0 -41,-5 -52,-13 -12,-9 -19,-25 -20,-49l-2 -2c-50,43 -107,65 -173,65 -28,0 -52,-5 -73,-15 -21,-9 -36,-22 -47,-37 -10,-15 -18,-30 -23,-46 -5,-15 -7,-31 -7,-47 0,-46 19,-82 56,-108 37,-26 84,-40 142,-43l122 -8 0 -28c0,-37 -7,-63 -22,-78 -14,-15 -40,-23 -79,-23 -51,0 -104,9 -157,27 -5,-21 -12,-45 -20,-72 61,-27 129,-41 203,-41 60,0 105,13 136,40 31,26 46,69 46,130zm-107 107l-116 8c-58,5 -86,30 -86,77 0,53 26,79 80,79 40,0 80,-19 122,-56l0 -108z"/>
  <path id="11" class="fil0" d="M9627 245l5 4c47,-36 97,-55 151,-55 128,0 192,84 192,253 0,80 -17,143 -50,191 -33,49 -85,73 -157,73 -58,0 -104,-11 -138,-33l0 236 -111 0 0 -714 106 0 2 45zm118 385c78,0 117,-63 117,-187 0,-61 -10,-103 -29,-128 -20,-24 -48,-36 -84,-36 -18,0 -39,5 -64,15 -24,10 -42,20 -54,31l0 273c11,8 28,16 51,22 23,7 44,10 63,10z"/>
  <path id="12" class="fil0" d="M10184 701l-108 0 0 -500 108 0 0 197 82 0c49,0 80,-24 93,-71l38 -125 103 0 -39 138c-13,47 -36,77 -71,92l0 1c43,15 72,45 87,90 2,7 20,66 53,178l-108 0c-6,-19 -22,-71 -49,-157l0 1c-16,-49 -51,-74 -104,-74l-85 0 0 230z"/>
  <path id="13" class="fil0" d="M11072 452c0,35 -4,67 -13,97 -8,29 -22,56 -39,81 -18,25 -43,45 -75,59 -33,14 -71,22 -114,22 -82,0 -140,-24 -177,-71 -36,-48 -55,-110 -55,-187 0,-48 8,-91 23,-129 16,-38 42,-70 79,-96 36,-25 83,-38 138,-38 42,0 79,7 110,22 31,14 55,34 72,59 18,25 30,53 39,83 8,30 12,62 12,98zm-117 1c0,-121 -39,-181 -116,-181 -23,0 -44,5 -61,16 -17,10 -30,25 -38,43 -9,18 -16,37 -19,56 -4,20 -6,42 -6,66 0,55 9,98 26,129 17,31 50,47 98,47 77,0 116,-59 116,-176z"/>
  <path id="14" class="fil0" d="M11748 701l-106 0 0 -334 -5 0 -41 88c-9,20 -24,51 -46,94 -21,42 -38,75 -49,99l-70 0c-47,-92 -81,-157 -102,-195 -27,-54 -42,-84 -46,-91l-4 0 0 339 -107 0 0 -500 122 0 111 213c19,38 39,77 58,118l5 0c10,-24 30,-67 61,-128 28,-59 62,-126 101,-203l118 0 0 500z"/>
  <path id="15" class="fil0" d="M12269 362l0 262 67 0 6 63c-30,15 -65,23 -104,23 -23,0 -40,-5 -52,-13 -11,-9 -18,-25 -19,-49l-2 -2c-50,43 -108,65 -173,65 -28,0 -52,-5 -73,-15 -21,-9 -37,-22 -47,-37 -11,-15 -18,-30 -23,-46 -5,-15 -7,-31 -7,-47 0,-46 18,-82 55,-108 38,-26 85,-40 143,-43l122 -8 0 -28c0,-37 -7,-63 -22,-78 -14,-15 -41,-23 -79,-23 -52,0 -104,9 -157,27 -5,-21 -12,-45 -20,-72 61,-27 129,-41 203,-41 59,0 105,13 136,40 31,26 46,69 46,130zm-107 107l-116 8c-58,5 -87,30 -87,77 0,53 27,79 81,79 40,0 80,-19 122,-56l0 -108z"/>
  <polygon id="16" class="fil0" points="12864,701 12753,701 12753,475 12535,475 12535,701 12424,701 12424,201 12536,201 12536,396 12753,396 12753,201 12864,201 "/>
  <path id="17" class="fil0" d="M13580 701l-112 0 0 -500 112 0 0 500zm-366 -254l-128 0 0 178 135 0c27,0 48,-8 63,-24 16,-16 24,-37 24,-63 0,-28 -9,-50 -26,-67 -17,-16 -40,-24 -68,-24zm-238 -246l110 0 0 174 153 0c55,0 98,16 130,47 32,31 48,69 48,116 0,49 -15,88 -47,118 -32,30 -72,45 -120,45l-274 0 0 -500z"/>
  <path class="fil1" d="M1218 294l0 733 -117 -1 0 -587 -194 0c-8,186 -1,458 -1,658 -21,-13 -285,-587 -336,-668 -69,27 -198,209 -230,274 -114,224 -127,476 -36,717 32,82 94,183 143,234l265 1c-11,-17 -39,-35 -53,-47 -140,-136 -222,-293 -221,-508 0,-69 9,-131 27,-191l68 -147c73,128 209,432 280,573l247 504c7,14 13,27 18,38 3,8 5,11 8,16l14 20c3,-223 -5,-496 2,-705l113 -2 3 447 193 2 -1 -448 356 0c-20,128 -84,274 -175,360l-89 84c-1,1 -3,2 -4,3l272 1c34,-28 94,-130 115,-176 175,-376 65,-798 -251,-1050 -80,-64 -280,-172 -416,-172l0 37zm-112 -287c305,0 581,124 782,324 200,199 324,476 324,782 0,305 -124,581 -324,781 -201,200 -477,324 -782,324 -306,0 -582,-124 -782,-324 -200,-200 -324,-476 -324,-781 0,-306 124,-583 324,-782 200,-200 476,-324 782,-324zm760 345c-194,-194 -464,-315 -760,-315 -297,0 -566,121 -760,315 -195,195 -316,463 -316,761 0,296 121,565 316,760 194,194 463,314 760,314 296,0 566,-120 760,-314 195,-195 314,-464 314,-760 0,-298 -119,-566 -314,-761zm-760 -236c275,0 524,112 704,291 181,181 293,430 293,706 0,275 -112,524 -293,704 -180,181 -429,292 -704,292 -275,0 -525,-111 -705,-292 -180,-180 -292,-429 -292,-704 0,-276 112,-525 292,-706 180,-179 430,-291 705,-291zm682 313c-174,-175 -416,-283 -682,-283 -267,0 -509,108 -684,283 -175,175 -283,417 -283,684 0,266 108,507 283,682 175,175 417,283 684,283 266,0 508,-108 682,-283 175,-175 283,-416 283,-682 0,-267 -108,-509 -283,-684zm-378 598l357 0c-11,-124 -63,-230 -121,-309 -48,-65 -156,-176 -236,-200l0 509z"/>
  <polygon class="fil0" points="2725,1078 13580,1078 13580,1147 2725,1147 "/>
  <path class="fil0" d="M2091 1983c18,0 37,5 56,15 19,10 33,24 43,43 11,18 15,37 15,57 0,20 -4,39 -15,57 -10,18 -24,33 -42,43 -19,10 -38,15 -57,15 -20,0 -39,-5 -58,-15 -17,-10 -33,-25 -42,-43 -11,-18 -15,-37 -15,-57 0,-20 4,-39 15,-57 10,-19 25,-33 43,-43 18,-10 37,-15 57,-15zm0 19c-17,0 -32,5 -47,13 -16,8 -28,20 -37,35 -8,15 -13,32 -13,48 0,16 5,33 13,48 9,15 20,27 35,35 16,8 32,13 49,13 16,0 32,-5 48,-13 15,-8 27,-20 35,-35 8,-15 13,-32 13,-48 0,-16 -5,-33 -13,-48 -10,-15 -21,-27 -37,-35 -15,-8 -30,-13 -46,-13zm-51 159l0 -123 42 0c16,0 26,1 32,4 7,2 12,6 15,11 5,6 6,12 6,18 0,9 -2,18 -9,23 -6,8 -16,11 -26,12 5,3 8,4 10,7 5,5 11,13 19,25l15 23 -24 0 -12 -18c-8,-17 -15,-26 -20,-30 -4,-2 -9,-4 -16,-4l-12 0 0 52 -20 0zm20 -69l25 0c10,0 18,-2 23,-6 4,-3 6,-7 6,-13 0,-3 -1,-7 -2,-10 -3,-2 -6,-5 -10,-6 -3,-1 -9,-2 -20,-2l-22 0 0 37z"/>
 </g>
</svg>
