<?xml version="1.0" encoding="UTF-8"?>
<!DOCTYPE svg PUBLIC "-//W3C//DTD SVG 1.1//EN" "http://www.w3.org/Graphics/SVG/1.1/DTD/svg11.dtd">
<!-- Creator: CorelDRAW X8 -->
<svg xmlns="http://www.w3.org/2000/svg" xml:space="preserve" width="1358px" height="245px" version="1.1" style="shape-rendering:geometricPrecision; text-rendering:geometricPrecision; image-rendering:optimizeQuality; fill-rule:evenodd; clip-rule:evenodd"
viewBox="0 0 13580 2447"
 xmlns:xlink="http://www.w3.org/1999/xlink">
 <defs>
  <style type="text/css">
   <![CDATA[
    .fil1 {fill:white}
    .fil0 {fill:white;fill-rule:nonzero}
   ]]>
  </style>
 </defs>
 <g id="Слой_x0020_1">
  <metadata id="CorelCorpID_0Corel-Layer"/>
  <polygon class="fil0" points="3181,2328 2713,2328 2713,1626 3166,1626 3166,1710 2830,1710 2830,1919 3113,1919 3113,1998 2830,1998 2830,2243 3181,2243 "/>
  <path id="1" class="fil0" d="M3395 2328l-108 0 0 -500 108 0 0 196 82 0c48,0 79,-24 93,-71l38 -124 103 0 -39 138c-13,46 -37,77 -71,92l0 1c43,14 72,44 86,90 3,6 20,65 54,178l-109 0c-5,-19 -21,-72 -48,-158l0 1c-16,-49 -51,-73 -104,-73l-85 0 0 230z"/>
  <path id="2" class="fil0" d="M4230 1988l0 262 67 0 6 63c-30,15 -64,23 -103,23 -23,0 -41,-4 -52,-13 -12,-8 -18,-25 -20,-49l-2 -2c-50,43 -107,65 -173,65 -28,0 -52,-5 -73,-14 -21,-10 -36,-22 -47,-37 -10,-15 -18,-31 -23,-46 -5,-16 -7,-32 -7,-47 0,-47 19,-83 56,-109 37,-26 84,-40 142,-43l122 -8 0 -27c0,-38 -7,-64 -21,-79 -15,-15 -41,-23 -80,-23 -51,0 -103,9 -157,27 -5,-21 -12,-44 -20,-72 61,-27 129,-41 203,-41 60,0 105,14 136,40 31,26 46,69 46,130zm-107 108l-115 8c-58,4 -87,29 -87,76 0,53 27,79 80,79 40,0 80,-19 122,-56l0 -107z"/>
  <polygon id="3" class="fil0" points="4493,2328 4493,1907 4319,1907 4319,1827 4776,1827 4776,1907 4604,1907 4604,2328 "/>
  <path id="4" class="fil0" d="M5032 1815c143,0 215,81 215,242l0 40 -333 0c0,102 45,154 135,154 51,0 104,-11 161,-34l24 70c-59,32 -125,48 -198,48 -46,0 -84,-7 -116,-20 -32,-13 -56,-32 -73,-57 -16,-24 -28,-51 -35,-80 -7,-29 -11,-62 -11,-100 0,-22 2,-43 5,-65 3,-22 10,-45 21,-70 11,-24 24,-46 40,-64 17,-18 39,-33 67,-45 29,-12 61,-19 98,-19zm4 76c-73,0 -113,48 -120,144l227 0c0,-96 -35,-144 -107,-144z"/>
  <path id="5" class="fil0" d="M5454 1872l5 4c47,-37 97,-56 151,-56 128,0 192,85 192,253 0,80 -17,144 -50,192 -33,48 -85,72 -157,72 -58,0 -104,-11 -138,-33l0 236 -111 0 0 -713 106 0 2 45zm118 384c78,0 117,-62 117,-187 0,-61 -9,-103 -29,-127 -20,-25 -48,-37 -84,-37 -18,0 -39,5 -63,15 -25,10 -43,20 -55,31l0 273c11,9 28,16 51,22 23,7 44,10 63,10z"/>
  <path id="6" class="fil0" d="M6349 2328l-112 0 0 -356 -4 0 -63 103c-94,149 -148,234 -162,253l-105 0 0 -500 111 0 0 351 5 0c2,-4 10,-17 21,-36 12,-19 21,-34 28,-44 82,-128 140,-218 174,-271l107 0 0 500z"/>
  <polygon id="7" class="fil0" points="6901,2328 6790,2328 6790,2102 6572,2102 6572,2328 6460,2328 6460,1828 6573,1828 6573,2022 6790,2022 6790,1828 6901,1828 "/>
  <path id="8" class="fil0" d="M7224 1634c10,-4 27,-11 53,-21 26,-9 50,-19 71,-28 21,-9 37,-16 49,-21 15,30 26,52 33,67 -38,20 -76,37 -112,52 -75,31 -129,61 -161,90 -32,29 -52,76 -63,142 1,0 2,0 2,1 39,-54 93,-81 163,-81 72,0 124,22 156,67 33,44 49,105 49,180 0,33 -4,64 -12,93 -9,29 -22,56 -40,81 -17,24 -42,44 -74,58 -32,15 -70,22 -114,22 -43,0 -80,-7 -111,-22 -31,-14 -54,-34 -71,-58 -16,-25 -28,-52 -35,-80 -7,-28 -11,-58 -11,-91 0,-111 5,-186 13,-223 24,-104 96,-180 215,-228zm13 279c-42,0 -74,18 -95,55 -22,37 -32,79 -32,124 0,109 40,163 121,163 79,0 119,-56 119,-169 0,-116 -38,-173 -113,-173z"/>
  <path id="9" class="fil0" d="M7747 2256l27 -94c12,-40 30,-99 53,-176 24,-78 40,-130 48,-158l113 0 -199 592c-29,85 -81,127 -156,127 -32,0 -71,-5 -116,-17l16 -76c34,7 60,11 78,11 21,0 38,-5 50,-15 13,-9 23,-27 31,-52l26 -77 -52 0c-12,-38 -28,-90 -49,-156 -21,-67 -40,-128 -57,-182 -18,-55 -34,-107 -50,-155l111 0c14,45 46,157 96,336 7,23 15,54 24,92l6 0z"/>
  <path id="10" class="fil0" d="M8163 1872l5 4c46,-37 96,-56 150,-56 128,0 192,85 192,253 0,80 -16,144 -49,192 -33,48 -86,72 -157,72 -59,0 -105,-11 -138,-33l0 236 -112 0 0 -713 107 0 2 45zm117 384c79,0 118,-62 118,-187 0,-61 -10,-103 -30,-127 -19,-25 -47,-37 -84,-37 -17,0 -38,5 -63,15 -24,10 -43,20 -54,31l0 273c11,9 28,16 50,22 23,7 44,10 63,10z"/>
  <polygon id="11" class="fil0" points="8722,2328 8612,2328 8612,1827 8985,1827 8985,1907 8722,1907 "/>
  <path class="fil0" d="M3324 802l-119 0c-7,-22 -17,-53 -30,-94 -13,-42 -21,-68 -25,-79l-266 0 -55 173 -116 0c26,-80 66,-198 119,-354 53,-157 91,-272 116,-347l146 0 230 701zm-198 -255l-49 -166c-3,-9 -22,-73 -56,-191l-4 0 -55 187c0,3 -9,30 -25,83 -16,52 -25,81 -27,87l216 0z"/>
  <polygon id="1" class="fil0" points="3830,802 3719,802 3719,576 3501,576 3501,802 3390,802 3390,302 3502,302 3502,496 3719,496 3719,302 3830,302 "/>
  <path id="2" class="fil0" d="M4404 553c0,34 -4,67 -13,96 -8,30 -21,57 -39,82 -18,25 -43,45 -75,59 -33,14 -71,21 -114,21 -81,0 -140,-23 -177,-71 -36,-47 -54,-109 -54,-186 0,-48 7,-91 23,-129 15,-38 41,-70 78,-96 37,-25 83,-38 138,-38 42,0 79,7 110,21 31,15 55,35 72,60 18,25 31,53 39,83 8,30 12,62 12,98zm-117 1c0,-121 -38,-181 -116,-181 -23,0 -43,5 -60,16 -17,10 -30,24 -39,43 -9,18 -15,37 -19,56 -4,20 -6,42 -6,66 0,55 9,98 26,129 18,31 50,47 98,47 78,0 116,-59 116,-176z"/>
  <polygon id="3" class="fil0" points="4945,802 4833,802 4833,576 4616,576 4616,802 4504,802 4504,302 4617,302 4617,496 4833,496 4833,302 4945,302 "/>
  <path id="4" class="fil0" d="M5502 802l-111 0 0 -356 -4 0 -64 104c-94,149 -148,233 -161,252l-106 0 0 -500 111 0 0 352 5 0c3,-5 10,-17 21,-36 12,-20 21,-35 28,-45 82,-127 140,-218 174,-271l107 0 0 500z"/>
  <path id="5" class="fil0" d="M6189 802l-105 0 0 -334 -5 0 -41 88c-9,20 -24,51 -46,93 -22,43 -38,76 -49,100l-71 0c-47,-92 -81,-157 -101,-195 -27,-54 -43,-84 -46,-91l-4 0 0 339 -107 0 0 -500 121 0 112 213c19,37 38,77 58,117l4 0c10,-23 31,-66 61,-127 28,-59 62,-126 102,-203l117 0 0 500z"/>
  <polygon id="6" class="fil0" points="6741,802 6630,802 6630,576 6412,576 6412,802 6301,802 6301,302 6413,302 6413,496 6630,496 6630,302 6741,302 "/>
  <path id="7" class="fil0" d="M7457 802l-111 0 0 -500 111 0 0 500zm-366 -254l-128 0 0 177 135 0c27,0 48,-8 64,-24 15,-16 23,-37 23,-62 0,-28 -9,-51 -26,-67 -17,-16 -40,-24 -68,-24zm-238 -246l110 0 0 174 154 0c54,0 97,16 129,47 32,31 49,69 49,116 0,49 -16,88 -48,118 -32,30 -72,45 -120,45l-274 0 0 -500z"/>
  <path id="8" class="fil0" d="M7789 290c144,0 215,80 215,241l0 40 -332 0c0,103 45,154 135,154 50,0 104,-11 160,-33l25 69c-59,32 -126,48 -199,48 -45,0 -84,-6 -116,-20 -31,-13 -55,-32 -72,-56 -17,-25 -29,-52 -36,-81 -7,-29 -11,-62 -11,-99 0,-22 2,-44 5,-66 4,-22 11,-45 21,-69 11,-25 24,-46 41,-64 16,-18 38,-33 67,-46 28,-12 61,-18 97,-18zm4 76c-72,0 -112,48 -119,144l227 0c0,-96 -36,-144 -108,-144z"/>
  <polygon id="9" class="fil0" points="8832,802 8721,802 8721,576 8503,576 8503,802 8392,802 8392,302 8504,302 8504,496 8721,496 8721,302 8832,302 "/>
  <path id="10" class="fil0" d="M9354 463l0 261 66 0 6 64c-30,15 -64,22 -103,22 -23,0 -40,-4 -52,-12 -12,-9 -18,-25 -20,-49l-2 -2c-49,43 -107,64 -172,64 -28,0 -53,-4 -73,-14 -21,-9 -37,-22 -47,-37 -11,-15 -19,-30 -23,-46 -5,-15 -8,-31 -8,-47 0,-46 19,-82 56,-108 37,-26 85,-40 143,-43l121 -8 0 -28c0,-37 -7,-64 -21,-79 -14,-15 -41,-22 -80,-22 -51,0 -103,9 -156,26 -6,-20 -13,-44 -21,-71 62,-27 129,-41 204,-41 59,0 104,13 135,39 31,27 47,70 47,131zm-108 107l-115 8c-58,4 -87,30 -87,77 0,52 27,79 81,79 39,0 80,-19 121,-57l0 -107z"/>
  <path id="11" class="fil0" d="M9617 346l5 4c46,-37 96,-55 150,-55 128,0 192,84 192,253 0,79 -16,143 -49,191 -33,48 -86,72 -157,72 -59,0 -105,-11 -138,-32l0 236 -112 0 0 -714 106 0 3 45zm117 385c78,0 118,-63 118,-188 0,-60 -10,-103 -30,-127 -20,-24 -48,-36 -84,-36 -18,0 -39,5 -63,15 -25,10 -43,20 -54,31l0 273c11,8 27,15 50,22 23,6 44,10 63,10z"/>
  <path id="12" class="fil0" d="M10174 802l-109 0 0 -500 109 0 0 197 82 0c48,0 79,-24 93,-71l37 -125 104 0 -39 138c-13,47 -37,77 -72,92l0 1c44,15 73,45 87,90 2,6 20,66 53,178l-108 0c-5,-19 -22,-71 -48,-157l0 1c-16,-49 -51,-74 -104,-74l-85 0 0 230z"/>
  <path id="13" class="fil0" d="M11061 553c0,34 -4,67 -13,96 -8,30 -21,57 -39,82 -18,25 -43,45 -75,59 -32,14 -70,21 -114,21 -81,0 -140,-23 -176,-71 -37,-47 -55,-109 -55,-186 0,-48 8,-91 23,-129 15,-38 41,-70 78,-96 37,-25 83,-38 138,-38 42,0 79,7 110,21 31,15 55,35 73,60 17,25 30,53 38,83 8,30 12,62 12,98zm-116 1c0,-121 -39,-181 -117,-181 -23,0 -43,5 -60,16 -17,10 -30,24 -39,43 -9,18 -15,37 -19,56 -4,20 -6,42 -6,66 0,55 9,98 26,129 18,31 50,47 98,47 78,0 117,-59 117,-176z"/>
  <path id="14" class="fil0" d="M11737 802l-105 0 0 -334 -5 0 -41 88c-9,20 -24,51 -46,93 -22,43 -38,76 -49,100l-71 0c-47,-92 -81,-157 -101,-195 -27,-54 -43,-84 -46,-91l-4 0 0 339 -108 0 0 -500 122 0 112 213c19,37 38,77 58,117l4 0c10,-23 31,-66 61,-127 28,-59 62,-126 102,-203l117 0 0 500z"/>
  <path id="15" class="fil0" d="M12259 463l0 261 66 0 6 64c-30,15 -64,22 -103,22 -23,0 -41,-4 -52,-12 -12,-9 -18,-25 -20,-49l-2 -2c-49,43 -107,64 -173,64 -27,0 -52,-4 -73,-14 -20,-9 -36,-22 -47,-37 -10,-15 -18,-30 -23,-46 -4,-15 -7,-31 -7,-47 0,-46 19,-82 56,-108 37,-26 85,-40 143,-43l121 -8 0 -28c0,-37 -7,-64 -21,-79 -15,-15 -41,-22 -80,-22 -51,0 -103,9 -156,26 -6,-20 -13,-44 -21,-71 61,-27 129,-41 204,-41 59,0 104,13 135,39 31,27 47,70 47,131zm-108 107l-115 8c-58,4 -87,30 -87,77 0,52 27,79 81,79 39,0 80,-19 121,-57l0 -107z"/>
  <polygon id="16" class="fil0" points="12854,802 12742,802 12742,576 12524,576 12524,802 12413,802 12413,302 12525,302 12525,496 12742,496 12742,302 12854,302 "/>
  <path id="17" class="fil0" d="M13569 802l-111 0 0 -500 111 0 0 500zm-366 -254l-127 0 0 177 134 0c27,0 48,-8 64,-24 16,-16 23,-37 23,-62 0,-28 -8,-51 -26,-67 -17,-16 -40,-24 -68,-24zm-238 -246l111 0 0 174 153 0c54,0 98,16 130,47 32,31 48,69 48,116 0,49 -16,88 -48,118 -31,30 -72,45 -120,45l-274 0 0 -500z"/>
  <path class="fil1" d="M1207 394l0 734 -117 -1 0 -587 -194 0c-8,185 -1,457 -1,658 -21,-13 -285,-588 -336,-668 -69,26 -197,209 -230,274 -114,224 -126,476 -35,717 31,81 93,183 142,234l265 1c-10,-17 -39,-35 -53,-48 -140,-135 -222,-292 -221,-507 0,-69 9,-131 27,-191l69 -147c72,128 209,432 280,572l246 505c7,14 14,27 19,38 3,7 5,10 8,16l13 20c3,-223 -4,-496 2,-705l113 -2 3 447 194 2 -1 -448 355 0c-19,127 -83,274 -175,360l-89 84c-1,1 -3,2 -4,3l272 1c35,-28 95,-130 115,-176 175,-376 65,-799 -250,-1050 -81,-64 -280,-172 -417,-172l0 36zm-112 -286c306,0 582,123 782,324 200,199 324,476 324,781 0,306 -124,582 -324,782 -200,200 -476,323 -782,323 -305,0 -581,-123 -781,-323 -201,-200 -325,-476 -325,-782 0,-305 124,-582 325,-781 200,-201 476,-324 781,-324zm760 345c-194,-194 -463,-315 -760,-315 -296,0 -565,121 -760,315 -194,195 -315,463 -315,760 0,297 121,566 315,761 195,194 464,314 760,314 297,0 566,-120 760,-314 195,-195 315,-464 315,-761 0,-297 -120,-565 -315,-760zm-760 -236c275,0 525,112 705,291 180,181 292,430 292,705 0,275 -112,525 -292,705 -180,180 -430,291 -705,291 -275,0 -524,-111 -705,-291 -180,-180 -292,-430 -292,-705 0,-275 112,-524 292,-705 181,-179 430,-291 705,-291zm683 313c-175,-175 -417,-283 -683,-283 -267,0 -508,108 -683,283 -175,175 -283,416 -283,683 0,267 108,508 283,683 175,175 416,283 683,283 266,0 508,-108 683,-283 175,-175 283,-416 283,-683 0,-267 -108,-508 -283,-683zm-378 598l356 0c-11,-124 -63,-230 -121,-309 -48,-65 -156,-176 -235,-200l0 509z"/>
  <polygon class="fil0" points="2714,1178 13569,1178 13569,1248 2714,1248 "/>
  <path class="fil0" d="M2080 2084c19,0 37,5 56,15 19,10 33,24 44,42 10,19 15,38 15,58 0,20 -5,38 -15,57 -11,18 -25,33 -43,42 -18,11 -37,16 -57,16 -20,0 -39,-5 -57,-16 -18,-9 -33,-24 -43,-42 -10,-19 -15,-37 -15,-57 0,-20 5,-39 15,-58 11,-18 25,-32 44,-42 17,-10 36,-15 56,-15zm0 19c-16,0 -32,4 -47,13 -15,8 -28,20 -36,35 -8,15 -13,31 -13,48 0,16 5,33 13,48 8,15 20,27 35,35 15,8 32,13 48,13 16,0 33,-5 48,-13 15,-8 27,-20 35,-35 8,-15 13,-32 13,-48 0,-17 -5,-33 -13,-48 -9,-15 -21,-27 -36,-35 -15,-9 -31,-13 -47,-13zm-50 159l0 -123 42 0c15,0 26,1 31,4 7,2 12,5 16,11 4,6 5,12 5,18 0,9 -2,17 -9,23 -6,7 -15,11 -26,12 5,2 9,4 11,7 5,5 10,13 19,25l15 23 -25 0 -11 -19c-9,-16 -16,-25 -20,-29 -5,-2 -10,-5 -17,-5l-12 0 0 53 -19 0zm19 -69l25 0c11,0 19,-2 24,-6 3,-3 5,-7 5,-13 0,-3 -1,-7 -2,-10 -2,-3 -6,-5 -9,-6 -4,-1 -10,-3 -20,-3l-23 0 0 38z"/>
 </g>
</svg>
