<?xml version="1.0" encoding="UTF-8"?>
<!DOCTYPE svg PUBLIC "-//W3C//DTD SVG 1.1//EN" "http://www.w3.org/Graphics/SVG/1.1/DTD/svg11.dtd">
<!-- Creator: CorelDRAW X7 -->
<svg xmlns="http://www.w3.org/2000/svg" xml:space="preserve" width="100%" height="100%" version="1.1" style="shape-rendering:geometricPrecision; text-rendering:geometricPrecision; image-rendering:optimizeQuality; fill-rule:evenodd; clip-rule:evenodd"
viewBox="0 0 21000 29700"
 xmlns:xlink="http://www.w3.org/1999/xlink">
 <defs>
  <style type="text/css">
   <![CDATA[
    .fil0 {fill:#303FCA}
    .fil1 {fill:white}
   ]]>
  </style>
 </defs>
 <g id="Слой_x0020_1">
  <metadata id="CorelCorpID_0Corel-Layer"/>
  <path class="fil0" d="M18993 10335c-53,-557 -316,-1073 -735,-1444 -396,-349 -907,-543 -1435,-543 -12,0 -24,1 -35,1l-11558 0c-11,0 -22,0 -32,0 -115,0 -231,9 -345,26 -479,70 -921,302 -1251,656 -387,405 -604,945 -604,1506 0,11 0,23 0,34l0 8654c0,14 0,29 0,43 0,347 84,690 245,998 306,589 863,1008 1514,1138 206,34 415,52 624,52 84,0 168,-3 251,-8l11156 0c6,0 12,0 18,0 1213,0 2196,-984 2196,-2197 0,-8 0,-18 0,-26l0 -8487c0,-132 0,-263 -9,-403zm-13798 -534l11567 0c46,-6 93,-10 140,-10 47,0 94,4 140,10 -464,385 -945,762 -1417,1138l-4647 3762 -6072 -4856c94,-27 191,-42 288,-44l1 0zm12346 9424c0,9 0,18 0,26 0,228 -103,444 -280,586 -138,103 -305,159 -476,159 -11,0 -21,-1 -32,-1l-11593 0c-280,0 -536,-155 -665,-402 -62,-144 -93,-300 -93,-456 0,-38 2,-76 5,-113l0 -7674 6125 4874c131,110 297,171 468,171 171,0 337,-61 468,-171 2007,-1634 4031,-3258 6073,-4874l0 7875z"/>
  <path class="fil0" d="M5160 19584c-10,1 -19,1 -28,1 -115,0 -220,-60 -279,-159 -12,-54 -18,-110 -18,-166 0,-56 6,-112 18,-166l0 -6869 350 289 5032 4025c204,169 461,262 727,262 5,0 11,0 16,0 276,0 544,-100 753,-280 1785,-1417 3576,-2849 5372,-4296l0 7000c0,4 1,9 1,13 0,100 -46,195 -123,258 -62,40 -135,62 -209,62 -6,0 -13,0 -19,0l-11593 0 0 26z"/>
  <g>
   <path class="fil1" d="M5282 13100l4655 3719c288,248 655,385 1035,385 2,0 4,0 6,0 7,0 14,0 21,0 363,0 715,-127 994,-359l4681 -3736 0 6002 -11374 0c0,0 0,0 0,-52l0 -9 0 0 0 -5950 -18 0zm12259 -1750c-2030,1628 -4072,3252 -6125,4874 -131,110 -297,171 -468,171 -172,0 -338,-61 -469,-171l-6072 -4874 0 7700c-3,37 -5,75 -5,113 0,156 31,312 93,456 129,247 385,402 664,402l11594 0c11,1 21,1 32,1 171,0 338,-56 476,-158 178,-143 282,-359 282,-587 0,-18 -1,-35 -2,-52l0 -7875 0 0z"/>
  </g>
 </g>
</svg>
