<?xml version="1.0" encoding="UTF-8"?>
<!DOCTYPE svg PUBLIC "-//W3C//DTD SVG 1.1//EN" "http://www.w3.org/Graphics/SVG/1.1/DTD/svg11.dtd">
<!-- Creator: CorelDRAW X8 -->
<svg xmlns="http://www.w3.org/2000/svg" xml:space="preserve" width="709px" height="709px" version="1.1" style="shape-rendering:geometricPrecision; text-rendering:geometricPrecision; image-rendering:optimizeQuality; fill-rule:evenodd; clip-rule:evenodd"
viewBox="0 0 7090 7090"
 xmlns:xlink="http://www.w3.org/1999/xlink">
 <defs>
  <style type="text/css">
   <![CDATA[
    .fil1 {fill:none}
    .fil2 {fill:#495C9C}
    .fil0 {fill:#495C9C;fill-rule:nonzero}
   ]]>
  </style>
 </defs>
 <g id="Слой_x0020_1">
  <metadata id="CorelCorpID_0Corel-Layer"/>
  <path class="fil0" d="M6768 3545c0,-890 -361,-1696 -944,-2279 -583,-583 -1389,-944 -2279,-944 -890,0 -1696,361 -2279,944 -583,583 -944,1389 -944,2279 0,890 361,1696 944,2279 583,583 1389,944 2279,944 890,0 1696,-361 2279,-944 583,-583 944,-1389 944,-2279zm-716 -2507c641,642 1038,1528 1038,2507 0,979 -397,1865 -1038,2507 -642,641 -1528,1038 -2507,1038 -979,0 -1865,-397 -2507,-1038 -641,-642 -1038,-1528 -1038,-2507 0,-979 397,-1865 1038,-2507 642,-641 1528,-1038 2507,-1038 979,0 1865,397 2507,1038z"/>
  <path class="fil1" d="M4240 2306c0,484 0,937 0,937l0 0c0,-30 0,-484 0,-937z"/>
  <path class="fil2" d="M3882 954c0,634 0,2327 0,2327l-352 0 0 -1728 -564 35 0 2080 -1058 -2115c0,0 -1974,1728 -352,3737 387,0 775,0 775,0 -811,-635 -1057,-1798 -529,-2714 177,423 1728,3560 1728,3560l35 -2080 282 0 0 1269 740 0 0 -1375 1058 0c-106,529 -423,1023 -881,1340 670,0 846,0 846,0 317,-423 529,-952 564,-1481 0,-669 -106,-2397 -2292,-2855zm1657 2327l-1093 0c0,0 0,-564 0,-1093 0,-177 0,-388 0,-529 988,423 1093,1622 1093,1622l0 0z"/>
 </g>
</svg>
