<?xml version="1.0" encoding="UTF-8"?>
<!DOCTYPE svg PUBLIC "-//W3C//DTD SVG 1.1//EN" "http://www.w3.org/Graphics/SVG/1.1/DTD/svg11.dtd">
<!-- Creator: CorelDRAW X8 -->
<svg xmlns="http://www.w3.org/2000/svg" xml:space="preserve" width="657px" height="709px" version="1.1" style="shape-rendering:geometricPrecision; text-rendering:geometricPrecision; image-rendering:optimizeQuality; fill-rule:evenodd; clip-rule:evenodd"
viewBox="0 0 6570 7091"
 xmlns:xlink="http://www.w3.org/1999/xlink">
 <defs>
  <style type="text/css">
   <![CDATA[
    .fil2 {fill:#495C9C}
    .fil1 {fill:#FEFEFE}
    .fil0 {fill:#495C9C;fill-rule:nonzero}
   ]]>
  </style>
 </defs>
 <g id="Слой_x0020_1">
  <metadata id="CorelCorpID_0Corel-Layer"/>
  <path class="fil0" d="M1058 3820l-7 -1563c3,-604 334,-1003 748,-1180 155,-66 323,-100 491,-101 169,-1 337,32 490,100 388,170 684,548 680,1142l1 0 0 2460 -1 0c1,336 170,552 391,650 98,43 206,66 315,67 110,2 221,-18 323,-59 240,-97 431,-319 446,-669l-13 -2131 588 -2 13 2142 0 13c-25,619 -376,1017 -815,1193 -174,70 -362,104 -549,101 -187,-2 -374,-41 -545,-117 -420,-187 -740,-583 -742,-1188l-1 0 0 -2460 1 -2c3,-322 -140,-518 -327,-601 -79,-34 -165,-51 -253,-51 -88,1 -178,19 -262,55 -216,93 -389,308 -391,639l7 1560 -588 2z"/>
  <g id="_1808363885488">
   <path class="fil1" d="M6570 1347c0,358 -277,853 -460,1154 -154,256 -324,504 -500,746 -81,111 -164,223 -250,331l-137 173 -138 -173c-86,-108 -169,-220 -249,-331 -176,-241 -345,-490 -500,-745 -182,-301 -461,-798 -461,-1155 0,-744 604,-1347 1348,-1347 744,0 1347,603 1347,1347zm-941 -183c0,-219 -178,-397 -397,-397 -220,0 -398,178 -398,397 0,220 178,398 398,398 219,0 397,-178 397,-398z"/>
  </g>
  <path class="fil2" d="M6394 1347c0,647 -1171,2122 -1171,2122 0,0 -1172,-1479 -1172,-2122 0,-647 524,-1171 1172,-1171 646,0 1171,524 1171,1171zm-589 -183c0,-316 -257,-573 -573,-573 -317,0 -573,257 -573,573 0,317 256,573 573,573 316,0 573,-256 573,-573z"/>
  <g id="_1808363884048">
   <path class="fil1" d="M2695 4687c0,358 -277,853 -459,1154 -155,256 -325,504 -501,746 -81,111 -164,223 -250,331l-138 173 -137 -173c-86,-108 -168,-220 -250,-331 -175,-242 -344,-490 -499,-745 -182,-301 -461,-798 -461,-1155 0,-744 604,-1347 1348,-1347 744,0 1347,603 1347,1347zm-941 -183c0,-219 -178,-397 -397,-397 -220,0 -397,178 -397,397 0,220 177,397 397,397 219,0 397,-177 397,-397z"/>
  </g>
  <path class="fil2" d="M2519 4687c0,647 -1171,2122 -1171,2122 0,0 -1172,-1479 -1172,-2122 0,-647 525,-1171 1172,-1171 647,0 1171,524 1171,1171zm-589 -183c0,-316 -257,-573 -573,-573 -317,0 -573,257 -573,573 0,317 256,573 573,573 316,0 573,-256 573,-573z"/>
 </g>
</svg>
