<?xml version="1.0" encoding="UTF-8"?>
<!DOCTYPE svg PUBLIC "-//W3C//DTD SVG 1.1//EN" "http://www.w3.org/Graphics/SVG/1.1/DTD/svg11.dtd">
<!-- Creator: CorelDRAW X7 -->
<svg xmlns="http://www.w3.org/2000/svg" xml:space="preserve" width="100%" height="100%" version="1.1" style="shape-rendering:geometricPrecision; text-rendering:geometricPrecision; image-rendering:optimizeQuality; fill-rule:evenodd; clip-rule:evenodd"
viewBox="0 0 21000 29700"
 xmlns:xlink="http://www.w3.org/1999/xlink">
 <defs>
  <style type="text/css">
   <![CDATA[
    .str0 {stroke:#303FCA;stroke-width:875}
    .fil1 {fill:none}
    .fil0 {fill:#303FCA}
    .fil2 {fill:white}
   ]]>
  </style>
 </defs>
 <g id="Слой_x0020_1">
  <metadata id="CorelCorpID_0Corel-Layer"/>
  <path class="fil0" d="M19305 14526c-67,146 -181,266 -323,342 -212,81 -433,143 -657,183 -361,88 -732,133 -1104,133 -517,0 -1032,-87 -1521,-255l-253 -79c-267,-131 -515,-299 -735,-499 -96,-143 -147,-312 -147,-485 0,-37 2,-73 7,-110 -35,-556 -125,-1113 -263,-1653 -42,-188 -119,-367 -227,-525 -237,-139 -494,-239 -762,-298 -502,-125 -1015,-213 -1531,-254 -322,-31 -650,-46 -975,-46 -1020,0 -2039,153 -3015,449 -66,11 -131,32 -192,61 -52,70 -93,146 -123,227 -154,410 -263,836 -323,1269 -53,254 -70,516 -105,770 -1,151 -40,298 -114,429 -129,132 -284,237 -455,306 -733,408 -1558,622 -2397,622 -278,0 -558,-24 -832,-71 -170,-6 -332,-75 -455,-192 -96,-175 -184,-324 -254,-464 -440,-698 -675,-1508 -675,-2334 0,-97 4,-195 10,-291 2,-265 68,-527 193,-761 111,-107 242,-193 385,-254 892,-531 1837,-983 2809,-1347 341,-140 709,-237 1059,-350 1351,-388 2757,-587 4165,-587 171,0 346,4 516,10 2512,110 4991,707 7280,1749 280,132 569,245 875,394l621 324 52 52c38,39 70,84 96,132 126,311 191,644 191,981 0,211 -26,423 -77,629 -125,640 -378,1252 -744,1793l0 0z"/>
  <path class="fil0" d="M13924 14570l-560 -2021c-66,-246 -266,-433 -516,-481l-1951 -368 0 0 -114 0 -114 0 0 0 -1951 368c-250,48 -451,235 -516,481l-534 2021c-60,229 -236,409 -464,472l-2905 797c-292,76 -497,341 -497,643 0,79 15,158 42,232l1356 4060c91,271 344,454 630,455l9844 0c286,-1 540,-184 630,-455l1356 -4060c28,-74 42,-153 42,-232 0,-302 -204,-567 -497,-643l-2870 -796c-207,-79 -361,-257 -411,-473l0 0z"/>
  <line class="fil1 str0" x1="2278" y1="21474" x2="19200" y2= "21474" />
  <circle class="fil2" cx="10739" cy="17326" r="3141"/>
  <line class="fil1 str0" x1="12725" y1="10545" x2="11772" y2= "12811" />
  <line class="fil1 str0" x1="9147" y1="10545" x2="10092" y2= "12811" />
 </g>
</svg>
